<svg width="1440" height="683" viewBox="0 0 1440 683" fill="none" xmlns="http://www.w3.org/2000/svg">
<rect x="-27.2734" width="1479" height="682" fill="#FEF2F2"/>
<path d="M-13.5631 681.501L30.4268 681.613C28.4289 660.551 27.3146 639.488 25.7585 618.426C26.45 604.406 34.4658 594.802 36.6756 577.873C37.638 571.33 40.5785 567.146 42.5985 561.865C45.8038 556.341 46.6794 550.427 48.1846 544.618C49.7684 536.61 42.2992 533.598 39.4794 542.07C37.732 547.781 35.448 553.594 32.3486 559.565C28.7415 564.56 28.2515 563.22 29.169 557.843L32.2192 544.135L32.8366 535.594L34.1073 527.905C35.8989 521.084 26.6671 515.179 24.1982 525.563C23.702 530.385 22.6923 535.206 21.4817 540.028C21.0387 541.633 20.5218 544.119 19.753 549.602C19.3053 553.223 15.7852 557.195 16.45 549.349C17.5541 540.009 17.6808 539.597 18.1478 534.54C18.6215 525.472 17.9864 522.915 18.1478 520.602C21.5583 508.993 9.17221 506.627 8.11527 517.663L6.01615 532.243L5.12094 548.016C4.64479 551.061 4.35518 556.431 2.96008 548.016L0.583134 535.389L-0.466431 522.759C-0.151676 512.959 -10.2174 509.002 -11.0546 522.805L-10.9312 532.609L-10.6225 543.055L-9.75813 564.683C-10.4202 567.349 -11.465 570.077 -13.5551 572.971C-14.9345 569.351 -16.714 566.536 -18.5807 563.897C-19.672 553.84 -28.4923 548.425 -34 553.306C-33.2746 556.829 -32.4938 560.345 -30.5024 563.718C-31.2189 564.72 -29.7162 568.564 -28.5267 572.007C-26.582 576.537 -24.771 581.665 -22.6924 585.599C-22.6529 586.834 -20.1218 594.652 -15.5307 602.496C-12.1435 607.596 -8.74075 612.675 -9.67486 623.683L-13.5631 681.501Z" fill="white" stroke="white" stroke-width="0.999999"/>
<path d="M65.9987 681.637L127.766 681.72L120.395 584.319C120.111 570.918 126.862 564.867 133.549 558.75C144.997 548.598 157.544 536.273 168.317 529.683C173.4 527.483 177.125 525.753 178.604 524.801C184.504 520.512 181.108 516.193 172.394 515.635C161.087 515.608 154.801 522.036 146.864 526.341C132.974 534.608 126.73 527.506 125.014 520.29C122.444 501.679 128.264 495.199 130.724 484.088C136.185 470.988 139.484 460.259 142.82 449.489C146.2 438.926 136.121 434.186 131.957 444.54C127.987 454.14 123.809 463.259 119.233 471.454C117.921 474.056 116.647 476.002 115.235 480.388C109.978 489.095 106.34 492.771 108.076 479.751C108.754 475.615 109.11 471.12 109.491 466.651C110.79 453.81 110.883 442.03 110.783 434.157C110.254 424.209 99.1904 423.607 98.3813 432.576L98.1669 443.69L96.8298 456.312L94.9002 474.679C92.0903 495.952 86.733 482.422 84.6487 475.863C80.2056 463.644 78.0742 451.62 74.3181 440.935C71.4204 434.391 63.8743 435.126 63.8359 443.583C66.1512 456.67 69.8164 475.915 72.0114 482.106C72.0114 482.106 73.0016 484.724 74.6093 488.56C77.1846 497.638 74.0588 498.63 66.954 492.818L55.6399 479.973C52.5019 475.688 48.5371 471.281 44.42 466.851C39.7859 462.188 35.1477 465.962 37.3336 471.357C38.6636 473.856 39.7658 476.102 41.4512 478.998C50.8674 494.563 53.2926 494.652 60.3453 506.851C64.1631 513.774 64.9319 520.708 64.5699 531.679C65.1419 540.56 66.5567 548.443 69.1617 555.98C72.449 566.171 74.5153 576.19 72.6219 585.65L65.9987 681.637Z" fill="white" stroke="white" stroke-width="0.999999"/>
<path d="M179.194 681.733L218.573 681.75C217.544 663.426 215.938 645.338 216.314 626.439C216.602 623.758 217.472 621.326 218.77 619.078C224.434 609.881 223.668 607.843 225.833 602.541C227.063 597.785 229.089 594.903 231.242 592.319C236.984 585.575 239.81 580.234 242.238 575.084C246.475 565.661 238.728 565.713 235.692 570.395C233.563 573.915 232.282 577.673 228.567 580.748C226.975 582.003 225.388 583.205 223.747 584.875C221.381 587.524 219.156 587.515 220.472 582.878C223.494 576.255 224.864 570.519 226.399 564.695C228.33 558.583 228.654 556.847 229.233 554.417C232.208 546.736 222.91 544.585 221.059 551.094C220.114 556.041 218.457 560.411 216.376 564.438C214.089 568.592 211.93 572.593 210.69 575.504C210.051 577.496 208.165 579.239 208.363 574.713C209.549 566.698 210.04 560.62 210.144 555.153C210.448 546.404 210.535 546.197 210.703 542.829C213.044 534.362 203.012 533.988 202.041 540.588C201.036 545.331 199.976 549.133 199.038 555.026C198.541 559.563 197.702 564.115 197.371 568.074C195.428 581.307 193.502 572.863 192.933 568.213C192.365 562.491 190.832 558.858 189.786 554.322C189.235 549.496 188.887 546.777 188.533 544C188.235 536.827 180.226 536.677 179.454 543.925C179.421 547.67 179.375 551.4 179.784 555.584C180.055 560.861 179.306 564.057 180.876 571.984C182.236 578.75 182.832 584.044 181.314 586.662C177.032 594.925 173.366 602.502 165.855 595.138C161.442 592.019 158.858 590.062 155.728 589.55C143.925 587.832 144.798 592.675 144.393 594.232C145.657 596.708 151.151 599.944 154.84 602.615L166.302 610.917C170.307 614.693 171.642 616.945 175.302 620.109L180.411 624.828C181.442 650.321 180.844 664.166 179.194 681.733Z" fill="white" stroke="white" stroke-width="0.999999"/>
<g clip-path="url(#clip0_489_989)">
<path d="M264.437 681.501L308.427 681.613C306.429 660.551 305.315 639.488 303.758 618.426C304.45 604.406 312.466 594.802 314.676 577.873C315.638 571.33 318.578 567.146 320.598 561.865C323.804 556.341 324.679 550.427 326.185 544.618C327.768 536.61 320.299 533.598 317.479 542.07C315.732 547.781 313.448 553.594 310.349 559.565C306.742 564.56 306.252 563.22 307.169 557.843L310.219 544.135L310.837 535.594L312.107 527.905C313.899 521.084 304.667 515.179 302.198 525.563C301.702 530.385 300.692 535.206 299.482 540.028C299.039 541.633 298.522 544.119 297.753 549.602C297.305 553.223 293.785 557.195 294.45 549.349C295.554 540.009 295.681 539.597 296.148 534.54C296.622 525.472 295.986 522.915 296.148 520.602C299.558 508.993 287.172 506.627 286.115 517.663L284.016 532.243L283.121 548.016C282.645 551.061 282.355 556.431 280.96 548.016L278.583 535.389L277.534 522.759C277.848 512.959 267.783 509.002 266.945 522.805L267.069 532.609L267.378 543.055L268.242 564.683C267.58 567.349 266.535 570.077 264.445 572.971C263.066 569.351 261.286 566.536 259.419 563.897C258.328 553.84 249.508 548.425 244 553.306C244.725 556.829 245.506 560.345 247.498 563.718C246.781 564.72 248.284 568.564 249.473 572.007C251.418 576.537 253.229 581.665 255.308 585.599C255.347 586.834 257.878 594.652 262.469 602.496C265.857 607.596 269.259 612.675 268.325 623.683L264.437 681.501Z" fill="white" stroke="white" stroke-width="0.999999"/>
<path d="M343.999 681.637L405.766 681.72L398.395 584.319C398.111 570.918 404.862 564.867 411.549 558.75C422.997 548.598 435.544 536.273 446.317 529.683C451.4 527.483 455.125 525.753 456.604 524.801C462.504 520.512 459.108 516.193 450.394 515.635C439.087 515.608 432.801 522.036 424.864 526.341C410.974 534.608 404.73 527.506 403.014 520.29C400.444 501.679 406.264 495.199 408.724 484.088C414.185 470.988 417.484 460.259 420.82 449.489C424.2 438.926 414.121 434.186 409.957 444.54C405.987 454.14 401.809 463.259 397.233 471.454C395.921 474.056 394.647 476.002 393.235 480.388C387.978 489.095 384.34 492.771 386.076 479.751C386.754 475.615 387.11 471.12 387.491 466.651C388.79 453.81 388.883 442.03 388.783 434.157C388.254 424.209 377.19 423.607 376.381 432.576L376.167 443.69L374.83 456.312L372.9 474.679C370.09 495.952 364.733 482.422 362.649 475.863C358.206 463.644 356.074 451.62 352.318 440.935C349.42 434.391 341.874 435.126 341.836 443.583C344.151 456.67 347.816 475.915 350.011 482.106C350.011 482.106 351.002 484.724 352.609 488.56C355.185 497.638 352.059 498.63 344.954 492.818L333.64 479.973C330.502 475.688 326.537 471.281 322.42 466.851C317.786 462.188 313.148 465.962 315.334 471.357C316.664 473.856 317.766 476.102 319.451 478.998C328.867 494.563 331.293 494.652 338.345 506.851C342.163 513.774 342.932 520.708 342.57 531.679C343.142 540.56 344.557 548.443 347.162 555.98C350.449 566.171 352.515 576.19 350.622 585.65L343.999 681.637Z" fill="white" stroke="white" stroke-width="0.999999"/>
<path d="M457.194 681.733L496.573 681.75C495.544 663.426 493.938 645.338 494.314 626.439C494.602 623.758 495.472 621.326 496.77 619.078C502.434 609.881 501.668 607.843 503.833 602.541C505.063 597.785 507.089 594.903 509.242 592.319C514.984 585.575 517.81 580.234 520.238 575.084C524.475 565.661 516.728 565.713 513.692 570.395C511.563 573.915 510.282 577.673 506.567 580.748C504.975 582.003 503.388 583.205 501.747 584.875C499.381 587.524 497.156 587.515 498.472 582.878C501.494 576.255 502.864 570.519 504.399 564.695C506.33 558.583 506.654 556.847 507.233 554.417C510.208 546.736 500.91 544.585 499.059 551.094C498.114 556.041 496.457 560.411 494.376 564.438C492.089 568.592 489.93 572.593 488.69 575.504C488.051 577.496 486.165 579.239 486.363 574.713C487.549 566.698 488.04 560.62 488.144 555.153C488.448 546.404 488.535 546.197 488.703 542.829C491.044 534.362 481.012 533.988 480.041 540.588C479.036 545.331 477.976 549.133 477.038 555.026C476.541 559.563 475.702 564.115 475.371 568.074C473.428 581.307 471.502 572.863 470.933 568.213C470.365 562.491 468.832 558.858 467.786 554.322C467.235 549.496 466.887 546.777 466.533 544C466.235 536.827 458.226 536.677 457.454 543.925C457.421 547.67 457.375 551.4 457.784 555.584C458.055 560.861 457.306 564.057 458.876 571.984C460.236 578.75 460.832 584.044 459.314 586.662C455.032 594.925 451.366 602.502 443.855 595.138C439.442 592.019 436.858 590.062 433.728 589.55C421.925 587.832 422.798 592.675 422.393 594.232C423.657 596.708 429.151 599.944 432.84 602.615L444.302 610.917C448.307 614.693 449.642 616.945 453.302 620.109L458.411 624.828C459.442 650.321 458.844 664.166 457.194 681.733Z" fill="white" stroke="white" stroke-width="0.999999"/>
</g>
<g clip-path="url(#clip1_489_989)">
<path d="M542.437 681.501L586.427 681.613C584.429 660.551 583.315 639.488 581.758 618.426C582.45 604.406 590.466 594.802 592.676 577.873C593.638 571.33 596.578 567.146 598.598 561.865C601.804 556.341 602.679 550.427 604.185 544.618C605.768 536.61 598.299 533.598 595.479 542.07C593.732 547.781 591.448 553.594 588.349 559.565C584.742 564.56 584.252 563.22 585.169 557.843L588.219 544.135L588.837 535.594L590.107 527.905C591.899 521.084 582.667 515.179 580.198 525.563C579.702 530.385 578.692 535.206 577.482 540.028C577.039 541.633 576.522 544.119 575.753 549.602C575.305 553.223 571.785 557.195 572.45 549.349C573.554 540.009 573.681 539.597 574.148 534.54C574.622 525.472 573.986 522.915 574.148 520.602C577.558 508.993 565.172 506.627 564.115 517.663L562.016 532.243L561.121 548.016C560.645 551.061 560.355 556.431 558.96 548.016L556.583 535.389L555.534 522.759C555.848 512.959 545.783 509.002 544.945 522.805L545.069 532.609L545.378 543.055L546.242 564.683C545.58 567.349 544.535 570.077 542.445 572.971C541.066 569.351 539.286 566.536 537.419 563.897C536.328 553.84 527.508 548.425 522 553.306C522.725 556.829 523.506 560.345 525.498 563.718C524.781 564.72 526.284 568.564 527.473 572.007C529.418 576.537 531.229 581.665 533.308 585.599C533.347 586.834 535.878 594.652 540.469 602.496C543.857 607.596 547.259 612.675 546.325 623.683L542.437 681.501Z" fill="white" stroke="white" stroke-width="0.999999"/>
<path d="M621.999 681.637L683.766 681.72L676.395 584.319C676.111 570.918 682.862 564.867 689.549 558.75C700.997 548.598 713.544 536.273 724.317 529.683C729.4 527.483 733.125 525.753 734.604 524.801C740.504 520.512 737.108 516.193 728.394 515.635C717.087 515.608 710.801 522.036 702.864 526.341C688.974 534.608 682.73 527.506 681.014 520.29C678.444 501.679 684.264 495.199 686.724 484.088C692.185 470.988 695.484 460.259 698.82 449.489C702.2 438.926 692.121 434.186 687.957 444.54C683.987 454.14 679.809 463.259 675.233 471.454C673.921 474.056 672.647 476.002 671.235 480.388C665.978 489.095 662.34 492.771 664.076 479.751C664.754 475.615 665.11 471.12 665.491 466.651C666.79 453.81 666.883 442.03 666.783 434.157C666.254 424.209 655.19 423.607 654.381 432.576L654.167 443.69L652.83 456.312L650.9 474.679C648.09 495.952 642.733 482.422 640.649 475.863C636.206 463.644 634.074 451.62 630.318 440.935C627.42 434.391 619.874 435.126 619.836 443.583C622.151 456.67 625.816 475.915 628.011 482.106C628.011 482.106 629.002 484.724 630.609 488.56C633.185 497.638 630.059 498.63 622.954 492.818L611.64 479.973C608.502 475.688 604.537 471.281 600.42 466.851C595.786 462.188 591.148 465.962 593.334 471.357C594.664 473.856 595.766 476.102 597.451 478.998C606.867 494.563 609.293 494.652 616.345 506.851C620.163 513.774 620.932 520.708 620.57 531.679C621.142 540.56 622.557 548.443 625.162 555.98C628.449 566.171 630.515 576.19 628.622 585.65L621.999 681.637Z" fill="white" stroke="white" stroke-width="0.999999"/>
<path d="M735.194 681.733L774.573 681.75C773.544 663.426 771.938 645.338 772.314 626.439C772.602 623.758 773.472 621.326 774.77 619.078C780.434 609.881 779.668 607.843 781.833 602.541C783.063 597.785 785.089 594.903 787.242 592.319C792.984 585.575 795.81 580.234 798.238 575.084C802.475 565.661 794.728 565.713 791.692 570.395C789.563 573.915 788.282 577.673 784.567 580.748C782.975 582.003 781.388 583.205 779.747 584.875C777.381 587.524 775.156 587.515 776.472 582.878C779.494 576.255 780.864 570.519 782.399 564.695C784.33 558.583 784.654 556.847 785.233 554.417C788.208 546.736 778.91 544.585 777.059 551.094C776.114 556.041 774.457 560.411 772.376 564.438C770.089 568.592 767.93 572.593 766.69 575.504C766.051 577.496 764.165 579.239 764.363 574.713C765.549 566.698 766.04 560.62 766.144 555.153C766.448 546.404 766.535 546.197 766.703 542.829C769.044 534.362 759.012 533.988 758.041 540.588C757.036 545.331 755.976 549.133 755.038 555.026C754.541 559.563 753.702 564.115 753.371 568.074C751.428 581.307 749.502 572.863 748.933 568.213C748.365 562.491 746.832 558.858 745.786 554.322C745.235 549.496 744.887 546.777 744.533 544C744.235 536.827 736.226 536.677 735.454 543.925C735.421 547.67 735.375 551.4 735.784 555.584C736.055 560.861 735.306 564.057 736.876 571.984C738.236 578.75 738.832 584.044 737.314 586.662C733.032 594.925 729.366 602.502 721.855 595.138C717.442 592.019 714.858 590.062 711.728 589.55C699.925 587.832 700.798 592.675 700.393 594.232C701.657 596.708 707.151 599.944 710.84 602.615L722.302 610.917C726.307 614.693 727.642 616.945 731.302 620.109L736.411 624.828C737.442 650.321 736.844 664.166 735.194 681.733Z" fill="white" stroke="white" stroke-width="0.999999"/>
</g>
<g clip-path="url(#clip2_489_989)">
<path d="M820.437 681.501L864.427 681.613C862.429 660.551 861.315 639.488 859.758 618.426C860.45 604.406 868.466 594.802 870.676 577.873C871.638 571.33 874.578 567.146 876.598 561.865C879.804 556.341 880.679 550.427 882.185 544.618C883.768 536.61 876.299 533.598 873.479 542.07C871.732 547.781 869.448 553.594 866.349 559.565C862.742 564.56 862.252 563.22 863.169 557.843L866.219 544.135L866.837 535.594L868.107 527.905C869.899 521.084 860.667 515.179 858.198 525.563C857.702 530.385 856.692 535.206 855.482 540.028C855.039 541.633 854.522 544.119 853.753 549.602C853.305 553.223 849.785 557.195 850.45 549.349C851.554 540.009 851.681 539.597 852.148 534.54C852.622 525.472 851.986 522.915 852.148 520.602C855.558 508.993 843.172 506.627 842.115 517.663L840.016 532.243L839.121 548.016C838.645 551.061 838.355 556.431 836.96 548.016L834.583 535.389L833.534 522.759C833.848 512.959 823.783 509.002 822.945 522.805L823.069 532.609L823.378 543.055L824.242 564.683C823.58 567.349 822.535 570.077 820.445 572.971C819.066 569.351 817.286 566.536 815.419 563.897C814.328 553.84 805.508 548.425 800 553.306C800.725 556.829 801.506 560.345 803.498 563.718C802.781 564.72 804.284 568.564 805.473 572.007C807.418 576.537 809.229 581.665 811.308 585.599C811.347 586.834 813.878 594.652 818.469 602.496C821.857 607.596 825.259 612.675 824.325 623.683L820.437 681.501Z" fill="white" stroke="white" stroke-width="0.999999"/>
<path d="M899.999 681.637L961.766 681.72L954.395 584.319C954.111 570.918 960.862 564.867 967.549 558.75C978.997 548.598 991.544 536.273 1002.32 529.683C1007.4 527.483 1011.13 525.753 1012.6 524.801C1018.5 520.512 1015.11 516.193 1006.39 515.635C995.087 515.608 988.801 522.036 980.864 526.341C966.974 534.608 960.73 527.506 959.014 520.29C956.444 501.679 962.264 495.199 964.724 484.088C970.185 470.988 973.484 460.259 976.82 449.489C980.2 438.926 970.121 434.186 965.957 444.54C961.987 454.14 957.809 463.259 953.233 471.454C951.921 474.056 950.647 476.002 949.235 480.388C943.978 489.095 940.34 492.771 942.076 479.751C942.754 475.615 943.11 471.12 943.491 466.651C944.79 453.81 944.883 442.03 944.783 434.157C944.254 424.209 933.19 423.607 932.381 432.576L932.167 443.69L930.83 456.312L928.9 474.679C926.09 495.952 920.733 482.422 918.649 475.863C914.206 463.644 912.074 451.62 908.318 440.935C905.42 434.391 897.874 435.126 897.836 443.583C900.151 456.67 903.816 475.915 906.011 482.106C906.011 482.106 907.002 484.724 908.609 488.56C911.185 497.638 908.059 498.63 900.954 492.818L889.64 479.973C886.502 475.688 882.537 471.281 878.42 466.851C873.786 462.188 869.148 465.962 871.334 471.357C872.664 473.856 873.766 476.102 875.451 478.998C884.867 494.563 887.293 494.652 894.345 506.851C898.163 513.774 898.932 520.708 898.57 531.679C899.142 540.56 900.557 548.443 903.162 555.98C906.449 566.171 908.515 576.19 906.622 585.65L899.999 681.637Z" fill="white" stroke="white" stroke-width="0.999999"/>
<path d="M1013.19 681.733L1052.57 681.75C1051.54 663.426 1049.94 645.338 1050.31 626.439C1050.6 623.758 1051.47 621.326 1052.77 619.078C1058.43 609.881 1057.67 607.843 1059.83 602.541C1061.06 597.785 1063.09 594.903 1065.24 592.319C1070.98 585.575 1073.81 580.234 1076.24 575.084C1080.48 565.661 1072.73 565.713 1069.69 570.395C1067.56 573.915 1066.28 577.673 1062.57 580.748C1060.97 582.003 1059.39 583.205 1057.75 584.875C1055.38 587.524 1053.16 587.515 1054.47 582.878C1057.49 576.255 1058.86 570.519 1060.4 564.695C1062.33 558.583 1062.65 556.847 1063.23 554.417C1066.21 546.736 1056.91 544.585 1055.06 551.094C1054.11 556.041 1052.46 560.411 1050.38 564.438C1048.09 568.592 1045.93 572.593 1044.69 575.504C1044.05 577.496 1042.17 579.239 1042.36 574.713C1043.55 566.698 1044.04 560.62 1044.14 555.153C1044.45 546.404 1044.54 546.197 1044.7 542.829C1047.04 534.362 1037.01 533.988 1036.04 540.588C1035.04 545.331 1033.98 549.133 1033.04 555.026C1032.54 559.563 1031.7 564.115 1031.37 568.074C1029.43 581.307 1027.5 572.863 1026.93 568.213C1026.37 562.491 1024.83 558.858 1023.79 554.322C1023.23 549.496 1022.89 546.777 1022.53 544C1022.23 536.827 1014.23 536.677 1013.45 543.925C1013.42 547.67 1013.37 551.4 1013.78 555.584C1014.06 560.861 1013.31 564.057 1014.88 571.984C1016.24 578.75 1016.83 584.044 1015.31 586.662C1011.03 594.925 1007.37 602.502 999.855 595.138C995.442 592.019 992.858 590.062 989.728 589.55C977.925 587.832 978.798 592.675 978.393 594.232C979.657 596.708 985.151 599.944 988.84 602.615L1000.3 610.917C1004.31 614.693 1005.64 616.945 1009.3 620.109L1014.41 624.828C1015.44 650.321 1014.84 664.166 1013.19 681.733Z" fill="white" stroke="white" stroke-width="0.999999"/>
</g>
<g clip-path="url(#clip3_489_989)">
<path d="M1098.44 681.501L1142.43 681.613C1140.43 660.551 1139.31 639.488 1137.76 618.426C1138.45 604.406 1146.47 594.802 1148.68 577.873C1149.64 571.33 1152.58 567.146 1154.6 561.865C1157.8 556.341 1158.68 550.427 1160.18 544.618C1161.77 536.61 1154.3 533.598 1151.48 542.07C1149.73 547.781 1147.45 553.594 1144.35 559.565C1140.74 564.56 1140.25 563.22 1141.17 557.843L1144.22 544.135L1144.84 535.594L1146.11 527.905C1147.9 521.084 1138.67 515.179 1136.2 525.563C1135.7 530.385 1134.69 535.206 1133.48 540.028C1133.04 541.633 1132.52 544.119 1131.75 549.602C1131.31 553.223 1127.79 557.195 1128.45 549.349C1129.55 540.009 1129.68 539.597 1130.15 534.54C1130.62 525.472 1129.99 522.915 1130.15 520.602C1133.56 508.993 1121.17 506.627 1120.12 517.663L1118.02 532.243L1117.12 548.016C1116.64 551.061 1116.36 556.431 1114.96 548.016L1112.58 535.389L1111.53 522.759C1111.85 512.959 1101.78 509.002 1100.95 522.805L1101.07 532.609L1101.38 543.055L1102.24 564.683C1101.58 567.349 1100.53 570.077 1098.44 572.971C1097.07 569.351 1095.29 566.536 1093.42 563.897C1092.33 553.84 1083.51 548.425 1078 553.306C1078.73 556.829 1079.51 560.345 1081.5 563.718C1080.78 564.72 1082.28 568.564 1083.47 572.007C1085.42 576.537 1087.23 581.665 1089.31 585.599C1089.35 586.834 1091.88 594.652 1096.47 602.496C1099.86 607.596 1103.26 612.675 1102.33 623.683L1098.44 681.501Z" fill="white" stroke="white" stroke-width="0.999999"/>
<path d="M1178 681.637L1239.77 681.72L1232.39 584.319C1232.11 570.918 1238.86 564.867 1245.55 558.75C1257 548.598 1269.54 536.273 1280.32 529.683C1285.4 527.483 1289.13 525.753 1290.6 524.801C1296.5 520.512 1293.11 516.193 1284.39 515.635C1273.09 515.608 1266.8 522.036 1258.86 526.341C1244.97 534.608 1238.73 527.506 1237.01 520.29C1234.44 501.679 1240.26 495.199 1242.72 484.088C1248.18 470.988 1251.48 460.259 1254.82 449.489C1258.2 438.926 1248.12 434.186 1243.96 444.54C1239.99 454.14 1235.81 463.259 1231.23 471.454C1229.92 474.056 1228.65 476.002 1227.24 480.388C1221.98 489.095 1218.34 492.771 1220.08 479.751C1220.75 475.615 1221.11 471.12 1221.49 466.651C1222.79 453.81 1222.88 442.03 1222.78 434.157C1222.25 424.209 1211.19 423.607 1210.38 432.576L1210.17 443.69L1208.83 456.312L1206.9 474.679C1204.09 495.952 1198.73 482.422 1196.65 475.863C1192.21 463.644 1190.07 451.62 1186.32 440.935C1183.42 434.391 1175.87 435.126 1175.84 443.583C1178.15 456.67 1181.82 475.915 1184.01 482.106C1184.01 482.106 1185 484.724 1186.61 488.56C1189.18 497.638 1186.06 498.63 1178.95 492.818L1167.64 479.973C1164.5 475.688 1160.54 471.281 1156.42 466.851C1151.79 462.188 1147.15 465.962 1149.33 471.357C1150.66 473.856 1151.77 476.102 1153.45 478.998C1162.87 494.563 1165.29 494.652 1172.35 506.851C1176.16 513.774 1176.93 520.708 1176.57 531.679C1177.14 540.56 1178.56 548.443 1181.16 555.98C1184.45 566.171 1186.52 576.19 1184.62 585.65L1178 681.637Z" fill="white" stroke="white" stroke-width="0.999999"/>
<path d="M1291.19 681.733L1330.57 681.75C1329.54 663.426 1327.94 645.338 1328.31 626.439C1328.6 623.758 1329.47 621.326 1330.77 619.078C1336.43 609.881 1335.67 607.843 1337.83 602.541C1339.06 597.785 1341.09 594.903 1343.24 592.319C1348.98 585.575 1351.81 580.234 1354.24 575.084C1358.48 565.661 1350.73 565.713 1347.69 570.395C1345.56 573.915 1344.28 577.673 1340.57 580.748C1338.97 582.003 1337.39 583.205 1335.75 584.875C1333.38 587.524 1331.16 587.515 1332.47 582.878C1335.49 576.255 1336.86 570.519 1338.4 564.695C1340.33 558.583 1340.65 556.847 1341.23 554.417C1344.21 546.736 1334.91 544.585 1333.06 551.094C1332.11 556.041 1330.46 560.411 1328.38 564.438C1326.09 568.592 1323.93 572.593 1322.69 575.504C1322.05 577.496 1320.17 579.239 1320.36 574.713C1321.55 566.698 1322.04 560.62 1322.14 555.153C1322.45 546.404 1322.54 546.197 1322.7 542.829C1325.04 534.362 1315.01 533.988 1314.04 540.588C1313.04 545.331 1311.98 549.133 1311.04 555.026C1310.54 559.563 1309.7 564.115 1309.37 568.074C1307.43 581.307 1305.5 572.863 1304.93 568.213C1304.37 562.491 1302.83 558.858 1301.79 554.322C1301.23 549.496 1300.89 546.777 1300.53 544C1300.23 536.827 1292.23 536.677 1291.45 543.925C1291.42 547.67 1291.37 551.4 1291.78 555.584C1292.06 560.861 1291.31 564.057 1292.88 571.984C1294.24 578.75 1294.83 584.044 1293.31 586.662C1289.03 594.925 1285.37 602.502 1277.86 595.138C1273.44 592.019 1270.86 590.062 1267.73 589.55C1255.93 587.832 1256.8 592.675 1256.39 594.232C1257.66 596.708 1263.15 599.944 1266.84 602.615L1278.3 610.917C1282.31 614.693 1283.64 616.945 1287.3 620.109L1292.41 624.828C1293.44 650.321 1292.84 664.166 1291.19 681.733Z" fill="white" stroke="white" stroke-width="0.999999"/>
</g>
<g clip-path="url(#clip4_489_989)">
<path d="M1376.44 681.501L1420.43 681.613C1418.43 660.551 1417.31 639.488 1415.76 618.426C1416.45 604.406 1424.47 594.802 1426.68 577.873C1427.64 571.33 1430.58 567.146 1432.6 561.865C1435.8 556.341 1436.68 550.427 1438.18 544.618C1439.77 536.61 1432.3 533.598 1429.48 542.07C1427.73 547.781 1425.45 553.594 1422.35 559.565C1418.74 564.56 1418.25 563.22 1419.17 557.843L1422.22 544.135L1422.84 535.594L1424.11 527.905C1425.9 521.084 1416.67 515.179 1414.2 525.563C1413.7 530.385 1412.69 535.206 1411.48 540.028C1411.04 541.633 1410.52 544.119 1409.75 549.602C1409.31 553.223 1405.79 557.195 1406.45 549.349C1407.55 540.009 1407.68 539.597 1408.15 534.54C1408.62 525.472 1407.99 522.915 1408.15 520.602C1411.56 508.993 1399.17 506.627 1398.12 517.663L1396.02 532.243L1395.12 548.016C1394.64 551.061 1394.36 556.431 1392.96 548.016L1390.58 535.389L1389.53 522.759C1389.85 512.959 1379.78 509.002 1378.95 522.805L1379.07 532.609L1379.38 543.055L1380.24 564.683C1379.58 567.349 1378.53 570.077 1376.44 572.971C1375.07 569.351 1373.29 566.536 1371.42 563.897C1370.33 553.84 1361.51 548.425 1356 553.306C1356.73 556.829 1357.51 560.345 1359.5 563.718C1358.78 564.72 1360.28 568.564 1361.47 572.007C1363.42 576.537 1365.23 581.665 1367.31 585.599C1367.35 586.834 1369.88 594.652 1374.47 602.496C1377.86 607.596 1381.26 612.675 1380.33 623.683L1376.44 681.501Z" fill="white" stroke="white" stroke-width="0.999999"/>
<path d="M1456 681.637L1517.77 681.72L1510.39 584.319C1510.11 570.918 1516.86 564.867 1523.55 558.75C1535 548.598 1547.54 536.273 1558.32 529.683C1563.4 527.483 1567.13 525.753 1568.6 524.801C1574.5 520.512 1571.11 516.193 1562.39 515.635C1551.09 515.608 1544.8 522.036 1536.86 526.341C1522.97 534.608 1516.73 527.506 1515.01 520.29C1512.44 501.679 1518.26 495.199 1520.72 484.088C1526.18 470.988 1529.48 460.259 1532.82 449.489C1536.2 438.926 1526.12 434.186 1521.96 444.54C1517.99 454.14 1513.81 463.259 1509.23 471.454C1507.92 474.056 1506.65 476.002 1505.24 480.388C1499.98 489.095 1496.34 492.771 1498.08 479.751C1498.75 475.615 1499.11 471.12 1499.49 466.651C1500.79 453.81 1500.88 442.03 1500.78 434.157C1500.25 424.209 1489.19 423.607 1488.38 432.576L1488.17 443.69L1486.83 456.312L1484.9 474.679C1482.09 495.952 1476.73 482.422 1474.65 475.863C1470.21 463.644 1468.07 451.62 1464.32 440.935C1461.42 434.391 1453.87 435.126 1453.84 443.583C1456.15 456.67 1459.82 475.915 1462.01 482.106C1462.01 482.106 1463 484.724 1464.61 488.56C1467.18 497.638 1464.06 498.63 1456.95 492.818L1445.64 479.973C1442.5 475.688 1438.54 471.281 1434.42 466.851C1429.79 462.188 1425.15 465.962 1427.33 471.357C1428.66 473.856 1429.77 476.102 1431.45 478.998C1440.87 494.563 1443.29 494.652 1450.35 506.851C1454.16 513.774 1454.93 520.708 1454.57 531.679C1455.14 540.56 1456.56 548.443 1459.16 555.98C1462.45 566.171 1464.52 576.19 1462.62 585.65L1456 681.637Z" fill="white" stroke="white" stroke-width="0.999999"/>
</g>
<defs>
<clipPath id="clip0_489_989">
<rect width="278" height="256" fill="white" transform="translate(243.727 426)"/>
</clipPath>
<clipPath id="clip1_489_989">
<rect width="278" height="256" fill="white" transform="translate(521.727 426)"/>
</clipPath>
<clipPath id="clip2_489_989">
<rect width="278" height="256" fill="white" transform="translate(799.727 426)"/>
</clipPath>
<clipPath id="clip3_489_989">
<rect width="278" height="256" fill="white" transform="translate(1077.73 426)"/>
</clipPath>
<clipPath id="clip4_489_989">
<rect width="278" height="256" fill="white" transform="translate(1355.73 426)"/>
</clipPath>
</defs>
</svg>
