<svg width="58" height="57" viewBox="0 0 58 57" fill="none" xmlns="http://www.w3.org/2000/svg">
<g clip-path="url(#clip0_82_223)">
<path d="M52.6425 8.59173H49.8234V6.55832C49.8234 4.79187 48.3862 3.35474 46.6198 3.35474C44.8533 3.35474 43.4162 4.79187 43.4162 6.55832V8.59173H38.0768V6.55832C38.0768 4.79187 36.6396 3.35474 34.8732 3.35474C33.1067 3.35474 31.6696 4.79187 31.6696 6.55832V8.59173H26.3303V6.55832C26.3304 4.79187 24.8933 3.35474 23.1268 3.35474C21.3604 3.35474 19.9232 4.79187 19.9232 6.55832V8.59173H14.5839V6.55832C14.5839 4.79187 13.1468 3.35474 11.3803 3.35474C9.61389 3.35474 8.17676 4.79187 8.17676 6.55832V8.59173H5.35748C2.67892 8.59173 0.5 10.7707 0.5 13.4492V16.4972C0.5 17.028 0.930284 17.4583 1.4611 17.4583C1.99191 17.4583 2.4222 17.028 2.4222 16.4972V13.4492C2.4222 11.8306 3.73888 10.5139 5.35748 10.5139H8.17665V12.7336C8.17665 14.5 9.61378 15.9372 11.3802 15.9372C13.1467 15.9372 14.5838 14.5 14.5838 12.7336V10.5139H19.9231V12.7336C19.9231 14.5 21.3603 15.9372 23.1267 15.9372C24.8932 15.9372 26.3303 14.5 26.3303 12.7336V10.5139H31.6696V12.7336C31.6696 14.5 33.1067 15.9372 34.8732 15.9372C36.6396 15.9372 38.0768 14.5 38.0768 12.7336V10.5139H43.4162V12.7336C43.4162 14.5 44.8533 15.9372 46.6198 15.9372C48.3862 15.9372 49.8234 14.5 49.8234 12.7336V10.5139H52.6425C54.261 10.5139 55.5778 11.8307 55.5778 13.4492V15.8905C55.5778 16.4213 56.0081 16.8516 56.5389 16.8516C57.0697 16.8516 57.5 16.4213 57.5 15.8905V13.4492C57.5 10.7707 55.321 8.59173 52.6425 8.59173ZM12.6616 12.7336C12.6616 13.4402 12.0867 14.015 11.3802 14.015C10.6737 14.015 10.0988 13.4401 10.0988 12.7336V6.55832C10.0988 5.85172 10.6737 5.27693 11.3802 5.27693C12.0867 5.27693 12.6616 5.85183 12.6616 6.55832V12.7336ZM24.4083 12.7336C24.4083 12.7778 24.406 12.8213 24.4016 12.8644C24.3403 13.4667 23.86 13.947 23.2577 14.0083C23.2147 14.0126 23.1711 14.015 23.1269 14.015C23.0827 14.015 23.0392 14.0126 22.9961 14.0083C22.3937 13.947 21.9136 13.4667 21.8522 12.8644C21.8479 12.8213 21.8455 12.7778 21.8455 12.7336V6.55832C21.8455 5.85172 22.4204 5.27693 23.1269 5.27693C23.8335 5.27693 24.4083 5.85183 24.4083 6.55832V12.7336ZM36.1547 12.7336C36.1547 12.7778 36.1523 12.8213 36.148 12.8644C36.0867 13.4667 35.6064 13.947 35.0041 14.0083C34.961 14.0126 34.9175 14.015 34.8733 14.015C34.8291 14.015 34.7856 14.0126 34.7425 14.0083C34.1401 13.947 33.6599 13.4667 33.5986 12.8644C33.5942 12.8213 33.5919 12.7778 33.5919 12.7336V6.55832C33.5919 5.85172 34.1668 5.27693 34.8733 5.27693C35.5799 5.27693 36.1547 5.85183 36.1547 6.55832V12.7336ZM47.9012 12.7336C47.9012 12.7778 47.8988 12.8213 47.8945 12.8644C47.8331 13.4667 47.3529 13.947 46.7506 14.0083C46.7075 14.0126 46.664 14.015 46.6198 14.015C46.5756 14.015 46.532 14.0126 46.489 14.0083C45.8866 13.947 45.4064 13.4667 45.3451 12.8644C45.3407 12.8213 45.3384 12.7778 45.3384 12.7336V6.55832C45.3384 5.85172 45.9133 5.27693 46.6198 5.27693C47.3264 5.27693 47.9012 5.85183 47.9012 6.55832V12.7336Z" fill="#E01A2B"/>
<path d="M56.5389 18.7737C56.0081 18.7737 55.5778 19.204 55.5778 19.7348V22.5494H2.4222V20.3414C2.4222 19.8106 1.99191 19.3803 1.4611 19.3803C0.930284 19.3803 0.5 19.8106 0.5 20.3414V47.8424C0.5 51.0421 3.10308 53.6452 6.30277 53.6452H51.6972C54.8968 53.6452 57.5 51.0421 57.5 47.8424V19.7348C57.5 19.204 57.0697 18.7737 56.5389 18.7737ZM10.4192 51.723H6.30277C4.16304 51.723 2.4222 49.9821 2.4222 47.8424V43.4439H10.4192V51.723ZM10.4192 41.5218H2.4222V33.8654H10.4192V41.5218ZM10.4192 31.9433H2.4222V24.4715H10.4192V31.9433ZM22.1657 51.723H12.3414V43.4439H22.1657V51.723ZM22.1657 41.5218H12.3414V33.8654H22.1657V41.5218ZM22.1657 31.9433H12.3414V24.4715H22.1657V31.9433ZM33.9122 51.723H24.0879V43.4439H33.9122V51.723ZM33.9122 41.5218H24.0879V33.8654H33.9122V41.5218ZM33.9122 31.9433H24.0879V24.4715H33.9122V31.9433ZM45.6588 51.723H35.8344V43.4439H45.6588V51.723ZM45.6588 41.5218H35.8344V33.8654H45.6588V41.5218ZM45.6588 31.9433H35.8344V24.4715H45.6588V31.9433ZM55.5778 47.8424C55.5778 49.9821 53.837 51.723 51.6972 51.723H47.5809V43.4439H55.5778V47.8424ZM55.5778 41.5218H47.5809V33.8654H55.5778V41.5218ZM55.5778 31.9433H47.5809V24.4715H55.5778V31.9433Z" fill="#E01A2B"/>
</g>
<defs>
<clipPath id="clip0_82_223">
<rect width="57" height="57" fill="white" transform="translate(0.5)"/>
</clipPath>
</defs>
</svg>
