<svg width="116" height="116" viewBox="0 0 116 116" fill="none" xmlns="http://www.w3.org/2000/svg">
<path d="M87.7631 49.8146C86.8795 48.3125 85.6424 46.987 84.1403 46.0151V45.9267C84.1403 40.8899 80.3408 36.5604 75.3928 35.9417C72.5652 31.3469 67.617 28.6079 62.2267 28.6079C57.3671 28.6079 52.8604 30.9053 49.9447 34.7051C43.7594 35.3236 38.9879 40.5369 38.9879 46.8989V46.9873C36.3371 49.2847 34.835 52.5538 34.835 56.0883C34.835 59.2693 36.072 62.2735 38.3694 64.5709C40.6668 66.8683 43.6711 68.1054 46.8521 68.1054H58.0737V65.3662H46.9402C44.4661 65.3662 42.1687 64.3942 40.4015 62.627C38.6343 60.8598 37.6623 58.5624 37.6623 56.0883C37.6623 53.1723 38.9877 50.5217 41.2851 48.7545C41.6385 48.2243 41.9036 47.7825 41.8153 47.3407V46.7222C41.8153 41.6854 45.7915 37.5326 50.8281 37.2678C51.2699 37.2678 51.6234 37.0027 51.8884 36.6493C54.2742 33.2032 58.1619 31.1709 62.3151 31.1709C66.9098 31.1709 71.1512 33.645 73.3605 37.7096C73.6255 38.2398 73.979 38.5048 74.5091 38.5048C78.397 38.7699 81.4013 41.9509 81.4013 45.8386V46.5455C81.4013 47.0756 81.6664 47.6058 82.1082 47.8709C83.522 48.6661 84.6707 49.8148 85.4659 51.2286C86.2612 52.6424 86.703 54.2329 86.703 55.9118C86.703 61.0367 82.55 65.1899 77.4248 65.1899H66.1146V67.9291H77.3362C83.9631 67.9291 89.3534 62.5389 89.3534 55.912C89.3534 53.7913 88.8232 51.6707 87.7629 49.8148L87.7631 49.8146Z" fill="white"/>
<path d="M73.0042 48.136C73.0042 42.1275 68.1446 37.2678 62.136 37.2678C56.1275 37.2678 51.2678 42.1275 51.2678 48.136C51.2678 54.1446 56.1275 59.0042 62.136 59.0042C68.1446 59.0042 73.0042 54.1446 73.0042 48.136ZM59.4847 54.2332C58.7778 54.0565 58.1593 53.7914 57.7175 53.5263V51.2289H57.8058C57.9826 51.4056 58.1593 51.494 58.4244 51.6707C58.6895 51.8474 58.9545 52.0241 59.3963 52.2009C59.7498 52.3776 60.1032 52.466 60.545 52.6427C60.8101 52.731 60.9868 52.731 61.2519 52.8194C61.4287 52.8194 61.6937 52.9078 61.8705 52.9078C62.2239 52.9078 62.5774 52.9078 62.9308 52.8194H63.1075C63.3726 52.731 63.6377 52.6427 63.8144 52.5543C64.0795 52.3776 64.2562 52.2009 64.3446 52.0241C64.4329 51.8474 64.5213 51.5823 64.5213 51.1405C64.5213 50.6104 64.3446 50.2569 64.0795 49.9918C63.9028 49.8151 63.5493 49.6384 63.1075 49.4617C63.0192 49.4617 62.8424 49.3733 62.6657 49.3733C62.4006 49.2849 62.0472 49.1966 61.6054 49.1082C61.4287 49.1082 61.3403 49.0199 61.2519 49.0199C60.9868 48.9315 60.7218 48.8431 60.4567 48.8431C59.4847 48.5781 58.8662 48.1363 58.4244 47.6061C57.9826 47.0759 57.8058 46.369 57.8058 45.5738C57.8058 44.5134 58.2477 43.5415 59.0429 42.9229C59.6614 42.3928 60.3683 42.1277 61.2519 41.951V39.6536H63.0192V41.8626C63.461 41.8626 63.9028 41.951 64.3446 42.0393C65.0515 42.2161 65.5816 42.3928 66.1118 42.6579V44.8669H66.0234C65.4933 44.4251 64.8747 44.16 64.2562 43.8949C63.9028 43.7182 63.461 43.6298 63.1075 43.6298C62.8424 43.6298 62.5774 43.5415 62.3123 43.5415C61.9588 43.5415 61.517 43.6298 61.2519 43.7182C60.9868 43.8066 60.8101 43.8949 60.6334 43.9833C60.1916 44.2484 59.9265 44.6902 59.9265 45.3087C59.9265 45.8389 60.1032 46.1923 60.3683 46.4574C60.545 46.6341 60.8985 46.8108 61.2519 46.9876C61.3403 46.9876 61.517 47.0759 61.6937 47.0759C61.9588 47.1643 62.3123 47.2526 62.7541 47.341C62.9308 47.341 63.0192 47.4294 63.1959 47.4294C63.461 47.5177 63.726 47.5177 63.9911 47.6061C64.8747 47.8712 65.5816 48.2246 66.0234 48.7548C66.4652 49.2849 66.7303 49.9918 66.7303 50.8755C66.7303 51.4056 66.642 51.9358 66.3769 52.3776C66.2002 52.8194 65.8467 53.2612 65.4933 53.6146C65.0515 53.9681 64.5213 54.2332 63.9911 54.4099C63.726 54.4983 63.461 54.5866 63.1959 54.5866V56.884H61.2519V54.675C60.6334 54.4983 60.0149 54.4099 59.4847 54.2332Z" fill="white"/>
<path d="M70.0003 73.4954C69.3818 73.4954 68.94 73.9372 68.94 74.5557V78.1785H55.3323V74.5557C55.3323 73.9372 54.8905 73.4954 54.272 73.4954C53.6535 73.4954 53.2117 73.9372 53.2117 74.5557V79.2388C53.2117 79.8574 53.6535 80.2992 54.272 80.2992H69.9122C70.5307 80.2992 70.9725 79.8574 70.9725 79.2388V74.5557C71.0609 73.9372 70.5307 73.4954 70.0005 73.4954H70.0003Z" fill="white"/>
<path d="M55.0672 70.5793L61.8713 76.6764C61.9596 76.8532 62.2247 76.8532 62.3131 76.6764L69.1171 70.5793C69.2055 70.4025 69.1171 70.1375 68.852 70.1375H64.1689V62.8918H60.0159V70.1375H55.3328C55.1561 70.1375 54.9793 70.3142 55.0677 70.5793H55.0672Z" fill="white"/>
<g filter="url(#filter0_d_376_945)">
<circle cx="61.6872" cy="53.9606" r="51.9606" stroke="white" stroke-width="2" stroke-dasharray="2 5" shape-rendering="crispEdges"/>
</g>
<defs>
<filter id="filter0_d_376_945" x="0.226562" y="0.5" width="114.921" height="114.921" filterUnits="userSpaceOnUse" color-interpolation-filters="sRGB">
<feFlood flood-opacity="0" result="BackgroundImageFix"/>
<feColorMatrix in="SourceAlpha" type="matrix" values="0 0 0 0 0 0 0 0 0 0 0 0 0 0 0 0 0 0 127 0" result="hardAlpha"/>
<feMorphology radius="3" operator="erode" in="SourceAlpha" result="effect1_dropShadow_376_945"/>
<feOffset dx="-4" dy="4"/>
<feGaussianBlur stdDeviation="3.75"/>
<feComposite in2="hardAlpha" operator="out"/>
<feColorMatrix type="matrix" values="0 0 0 0 0.170833 0 0 0 0 0.153038 0 0 0 0 0.153038 0 0 0 0.25 0"/>
<feBlend mode="normal" in2="BackgroundImageFix" result="effect1_dropShadow_376_945"/>
<feBlend mode="normal" in="SourceGraphic" in2="effect1_dropShadow_376_945" result="shape"/>
</filter>
</defs>
</svg>
