<svg width="116" height="116" viewBox="0 0 116 116" fill="none" xmlns="http://www.w3.org/2000/svg">
<path d="M87.7631 49.8146C86.8795 48.3125 85.6424 46.987 84.1403 46.0151V45.9267C84.1403 40.8899 80.3408 36.5604 75.3928 35.9417C72.5652 31.3469 67.617 28.6079 62.2267 28.6079C57.3671 28.6079 52.8604 30.9053 49.9447 34.7051C43.7594 35.3236 38.9879 40.5369 38.9879 46.8989V46.9873C36.3371 49.2847 34.835 52.5538 34.835 56.0883C34.835 59.2693 36.072 62.2735 38.3694 64.5709C40.6668 66.8683 43.6711 68.1054 46.8521 68.1054H58.0737V65.3662H46.9402C44.4661 65.3662 42.1687 64.3942 40.4015 62.627C38.6343 60.8598 37.6623 58.5624 37.6623 56.0883C37.6623 53.1723 38.9877 50.5217 41.2851 48.7545C41.6385 48.2243 41.9036 47.7825 41.8153 47.3407V46.7222C41.8153 41.6854 45.7915 37.5326 50.8281 37.2678C51.2699 37.2678 51.6234 37.0027 51.8884 36.6493C54.2742 33.2032 58.1619 31.1709 62.3151 31.1709C66.9098 31.1709 71.1512 33.645 73.3605 37.7096C73.6255 38.2398 73.979 38.5048 74.5091 38.5048C78.397 38.7699 81.4013 41.9509 81.4013 45.8386V46.5455C81.4013 47.0756 81.6664 47.6058 82.1082 47.8709C83.522 48.6661 84.6707 49.8148 85.4659 51.2286C86.2612 52.6424 86.703 54.2329 86.703 55.9118C86.703 61.0367 82.55 65.1899 77.4248 65.1899H66.1146V67.9291H77.3362C83.9631 67.9291 89.3534 62.5389 89.3534 55.912C89.3534 53.7913 88.8232 51.6707 87.7629 49.8148L87.7631 49.8146Z" fill="white"/>
<path d="M73.004 48.136C73.004 42.1275 68.1443 37.2678 62.1358 37.2678C56.1272 37.2678 51.2676 42.1275 51.2676 48.136C51.2676 54.1446 56.1272 59.0042 62.1358 59.0042C68.1443 59.0042 73.004 54.1446 73.004 48.136ZM59.4845 54.2332C58.7776 54.0565 58.159 53.7914 57.7172 53.5263V51.2289H57.8056C57.9823 51.4056 58.159 51.494 58.4241 51.6707C58.6892 51.8474 58.9543 52.0241 59.3961 52.2009C59.7495 52.3776 60.103 52.466 60.5448 52.6427C60.8099 52.731 60.9866 52.731 61.2517 52.8194C61.4284 52.8194 61.6935 52.9078 61.8702 52.9078C62.2237 52.9078 62.5771 52.9078 62.9306 52.8194H63.1073C63.3724 52.731 63.6374 52.6427 63.8142 52.5543C64.0792 52.3776 64.256 52.2009 64.3443 52.0241C64.4327 51.8474 64.5211 51.5823 64.5211 51.1405C64.5211 50.6104 64.3443 50.2569 64.0792 49.9918C63.9025 49.8151 63.5491 49.6384 63.1073 49.4617C63.0189 49.4617 62.8422 49.3733 62.6655 49.3733C62.4004 49.2849 62.0469 49.1966 61.6051 49.1082C61.4284 49.1082 61.34 49.0199 61.2517 49.0199C60.9866 48.9315 60.7215 48.8431 60.4564 48.8431C59.4845 48.5781 58.8659 48.1363 58.4241 47.6061C57.9823 47.0759 57.8056 46.369 57.8056 45.5738C57.8056 44.5134 58.2474 43.5415 59.0427 42.9229C59.6612 42.3928 60.3681 42.1277 61.2517 41.951V39.6536H63.0189V41.8626C63.4607 41.8626 63.9025 41.951 64.3443 42.0393C65.0512 42.2161 65.5814 42.3928 66.1116 42.6579V44.8669H66.0232C65.493 44.4251 64.8745 44.16 64.256 43.8949C63.9025 43.7182 63.4607 43.6298 63.1073 43.6298C62.8422 43.6298 62.5771 43.5415 62.312 43.5415C61.9586 43.5415 61.5168 43.6298 61.2517 43.7182C60.9866 43.8066 60.8099 43.8949 60.6332 43.9833C60.1914 44.2484 59.9263 44.6902 59.9263 45.3087C59.9263 45.8389 60.103 46.1923 60.3681 46.4574C60.5448 46.6341 60.8982 46.8108 61.2517 46.9876C61.34 46.9876 61.5168 47.0759 61.6935 47.0759C61.9586 47.1643 62.312 47.2526 62.7538 47.341C62.9306 47.341 63.0189 47.4294 63.1956 47.4294C63.4607 47.5177 63.7258 47.5177 63.9909 47.6061C64.8745 47.8712 65.5814 48.2246 66.0232 48.7548C66.465 49.2849 66.7301 49.9918 66.7301 50.8755C66.7301 51.4056 66.6417 51.9358 66.3766 52.3776C66.1999 52.8194 65.8465 53.2612 65.493 53.6146C65.0512 53.9681 64.5211 54.2332 63.9909 54.4099C63.7258 54.4983 63.4607 54.5866 63.1956 54.5866V56.884H61.2517V54.675C60.6332 54.4983 60.0146 54.4099 59.4845 54.2332Z" fill="white"/>
<path d="M70.0005 73.4954C69.382 73.4954 68.9402 73.9372 68.9402 74.5557V78.1785H55.3326V74.5557C55.3326 73.9372 54.8908 73.4954 54.2722 73.4954C53.6537 73.4954 53.2119 73.9372 53.2119 74.5557V79.2388C53.2119 79.8574 53.6537 80.2992 54.2722 80.2992H69.9124C70.5309 80.2992 70.9728 79.8574 70.9728 79.2388V74.5557C71.0611 73.9372 70.5309 73.4954 70.0008 73.4954H70.0005Z" fill="white"/>
<path d="M55.067 70.5793L61.871 76.6764C61.9594 76.8532 62.2245 76.8532 62.3128 76.6764L69.1169 70.5793C69.2052 70.4025 69.1169 70.1375 68.8518 70.1375H64.1687V62.8918H60.0157V70.1375H55.3325C55.1558 70.1375 54.9791 70.3142 55.0674 70.5793H55.067Z" fill="white"/>
<g filter="url(#filter0_d_1_4835)">
<circle cx="61.6872" cy="53.9606" r="51.9606" stroke="white" stroke-width="2" stroke-dasharray="2 5" shape-rendering="crispEdges"/>
</g>
<defs>
<filter id="filter0_d_1_4835" x="0.226562" y="0.5" width="114.921" height="114.921" filterUnits="userSpaceOnUse" color-interpolation-filters="sRGB">
<feFlood flood-opacity="0" result="BackgroundImageFix"/>
<feColorMatrix in="SourceAlpha" type="matrix" values="0 0 0 0 0 0 0 0 0 0 0 0 0 0 0 0 0 0 127 0" result="hardAlpha"/>
<feMorphology radius="3" operator="erode" in="SourceAlpha" result="effect1_dropShadow_1_4835"/>
<feOffset dx="-4" dy="4"/>
<feGaussianBlur stdDeviation="3.75"/>
<feComposite in2="hardAlpha" operator="out"/>
<feColorMatrix type="matrix" values="0 0 0 0 0.170833 0 0 0 0 0.153038 0 0 0 0 0.153038 0 0 0 0.25 0"/>
<feBlend mode="normal" in2="BackgroundImageFix" result="effect1_dropShadow_1_4835"/>
<feBlend mode="normal" in="SourceGraphic" in2="effect1_dropShadow_1_4835" result="shape"/>
</filter>
</defs>
</svg>
