<svg width="116" height="116" viewBox="0 0 116 116" fill="none" xmlns="http://www.w3.org/2000/svg">
<g filter="url(#filter0_d_489_990)">
<circle cx="61.6872" cy="53.9606" r="51.9606" stroke="white" stroke-width="2" stroke-dasharray="2 5" shape-rendering="crispEdges"/>
</g>
<path d="M74.3923 79.6251C72.6151 79.6251 70.7767 79.2574 68.9996 78.3995L50.4314 69.6363C49.3283 69.0848 48.4704 68.1656 48.0414 67.0012C47.6737 65.8369 47.735 64.55 48.2253 63.4469C48.2866 63.2631 48.4704 63.0792 48.7155 62.9567C50.6152 61.7923 54.4147 61.2408 56.6208 62.2213L48.0414 48.433C47.3673 47.3913 47.1835 46.1044 47.4286 44.94C47.6737 43.7757 48.4704 42.6726 49.5122 42.0598C51.657 40.7729 54.5985 41.3857 55.8854 43.5918L59.6848 49.7812C59.9912 49.4748 60.3589 49.1071 60.7266 48.9233C62.1361 48.0654 63.8519 48.0041 65.2001 48.7394C65.5678 48.0041 66.1193 47.4525 66.8547 46.9623C68.2642 46.1044 69.9801 46.0431 71.3282 46.7785C71.6959 46.0431 72.2475 45.4915 72.9828 45.0013C74.0859 44.3272 75.4341 44.1434 76.6597 44.4498C77.824 44.7562 78.8045 45.4915 79.4173 46.5333L86.2195 58.9121C89.5287 64.9789 87.3839 71.536 83.7683 75.3967C81.1945 78.0931 77.824 79.6251 74.3923 79.6251ZM50.1863 64.7338C50.0637 65.2241 50.0637 65.7143 50.2476 66.2045C50.4314 66.8174 50.9216 67.2463 51.4119 67.4915L69.9801 76.2546C75.0051 78.6446 79.6012 76.4385 82.2363 73.6808C85.239 70.4329 87.1388 64.9177 84.3198 59.8926L77.4563 47.4525C77.2112 46.9623 76.721 46.5946 76.1695 46.4721C75.4954 46.2882 74.8825 46.4108 74.2697 46.7172C73.5956 47.0849 73.228 47.759 73.1667 48.5556C73.1054 49.0459 72.8603 49.4135 72.37 49.5974C71.8798 49.7199 71.4508 49.5974 71.1444 49.291C70.409 48.433 69.1221 48.2492 68.1416 48.8007C67.4675 49.1684 67.0998 49.8425 67.0386 50.6392C66.9773 51.1294 66.7322 51.4971 66.2419 51.6809C65.7517 51.8035 65.3227 51.6809 65.0163 51.3745C64.2809 50.5166 62.994 50.3327 62.0135 50.8843C61.462 51.1907 61.0943 51.7422 60.9717 52.4163C60.8492 52.9066 60.4815 53.213 60.0525 53.3355C59.5623 53.3968 59.1333 53.213 58.8882 52.784L53.9857 44.8787C53.3116 43.7757 51.9021 43.408 50.7378 44.1434C50.1863 44.4498 49.8186 45.0013 49.696 45.6141C49.5735 46.2269 49.6347 46.8397 49.9411 47.3913L60.5428 64.4887C60.7879 64.9789 60.7266 65.4692 60.4202 65.8981C60.1138 66.2658 59.501 66.4497 59.0107 66.1433L55.7016 64.2436C54.3534 63.7533 51.657 63.9984 50.1863 64.7338Z" fill="white" stroke="white" stroke-width="1.5"/>
<path d="M38.2167 53.0252C37.9103 53.0252 37.6039 52.8414 37.4201 52.535C37.175 52.106 37.3588 51.5545 37.7878 51.3094L44.0384 47.8776C44.4674 47.6325 45.0189 47.8163 45.2641 48.2453C45.5092 48.6743 45.3254 49.2258 44.8964 49.4709L38.6457 52.9027C38.5232 52.9639 38.4006 53.0252 38.2167 53.0252Z" fill="white" stroke="white" stroke-width="1.5"/>
<path d="M58.3784 41.9334C58.072 41.9334 57.7656 41.7496 57.5817 41.4432C57.3366 41.0142 57.5204 40.4627 57.9494 40.2176L64.2001 36.7858C64.629 36.5407 65.1806 36.7245 65.4257 37.1535C65.6708 37.5825 65.487 38.134 65.058 38.3791L58.8073 41.8109C58.6848 41.8722 58.5009 41.9334 58.3784 41.9334Z" fill="white" stroke="white" stroke-width="1.5"/>
<path d="M53.6597 37.5825C53.5984 37.5825 53.4758 37.5825 53.4145 37.5212C52.9243 37.3987 52.6179 36.8471 52.8017 36.3569L54.7627 29.4934C54.8853 29.0031 55.4368 28.6967 55.9271 28.8806C56.4173 29.0031 56.7237 29.5547 56.5399 30.0449L54.5789 36.9084C54.4563 37.3374 54.0886 37.5825 53.6597 37.5825Z" fill="white" stroke="white" stroke-width="1.5"/>
<path d="M46.6736 38.2566C46.3672 38.2566 46.0608 38.0728 45.877 37.8277L42.1388 31.7608C41.8937 31.3319 42.0163 30.7803 42.4453 30.4739C42.8742 30.1675 43.4257 30.3514 43.7322 30.7803L47.4703 36.8472C47.7154 37.2761 47.5929 37.8277 47.1639 38.1341C46.9801 38.1953 46.8575 38.2566 46.6736 38.2566Z" fill="white" stroke="white" stroke-width="1.5"/>
<path d="M42.6291 43.0977C42.5678 43.0977 42.5065 43.0977 42.3839 43.0977L35.4592 41.4431C34.9689 41.3205 34.6625 40.8303 34.7851 40.34C34.9076 39.8498 35.3979 39.5434 35.8881 39.6659L42.8129 41.3205C43.3031 41.4431 43.6096 41.9333 43.487 42.4236C43.4257 42.7913 43.058 43.0977 42.6291 43.0977Z" fill="white" stroke="white" stroke-width="1.5"/>
<defs>
<filter id="filter0_d_489_990" x="0.226562" y="0.5" width="114.921" height="114.921" filterUnits="userSpaceOnUse" color-interpolation-filters="sRGB">
<feFlood flood-opacity="0" result="BackgroundImageFix"/>
<feColorMatrix in="SourceAlpha" type="matrix" values="0 0 0 0 0 0 0 0 0 0 0 0 0 0 0 0 0 0 127 0" result="hardAlpha"/>
<feMorphology radius="3" operator="erode" in="SourceAlpha" result="effect1_dropShadow_489_990"/>
<feOffset dx="-4" dy="4"/>
<feGaussianBlur stdDeviation="3.75"/>
<feComposite in2="hardAlpha" operator="out"/>
<feColorMatrix type="matrix" values="0 0 0 0 0.170833 0 0 0 0 0.153038 0 0 0 0 0.153038 0 0 0 0.25 0"/>
<feBlend mode="normal" in2="BackgroundImageFix" result="effect1_dropShadow_489_990"/>
<feBlend mode="normal" in="SourceGraphic" in2="effect1_dropShadow_489_990" result="shape"/>
</filter>
</defs>
</svg>
