<svg width="52" height="61" viewBox="0 0 52 61" fill="none" xmlns="http://www.w3.org/2000/svg">
<path d="M5.59407 58.7717L5.52849 59.8305L6.58937 59.8335L15.6089 59.8585L16.7031 59.8616L16.6079 58.7715C16.3358 55.6573 16.1447 52.5537 15.9527 49.4352C15.8574 47.8881 15.7619 46.3373 15.6561 44.7797C15.7274 43.4062 16.12 42.2312 16.6015 40.846C16.6153 40.8062 16.6292 40.7663 16.6432 40.7263C17.1156 39.3682 17.6501 37.8317 17.8848 35.8873C17.9686 35.2744 18.137 34.7643 18.3459 34.2474C18.4107 34.0872 18.4879 33.9078 18.57 33.717C18.721 33.3664 18.8884 32.9774 19.0251 32.5991C19.5902 31.513 19.8427 30.3403 20.0609 29.3265C20.1164 29.0687 20.1697 28.8211 20.2253 28.5878L20.2316 28.5615L20.2365 28.5349C20.4324 27.4589 20.1472 26.1693 19.0485 25.7591C18.4682 25.5424 17.8692 25.6861 17.4144 26.0473C17.3077 26.132 17.2095 26.2274 17.1194 26.3321L17.3492 24.8225C17.6067 23.6659 17.0555 22.4776 16.1018 22.0314C15.5638 21.7797 14.8962 21.7808 14.3258 22.1991C14.2846 22.2293 14.2448 22.2611 14.2064 22.2943C14.2405 21.1336 13.7459 20.1014 12.6579 19.8219C11.9951 19.6516 11.3251 19.8684 10.8436 20.3465C10.4098 20.7772 10.1516 21.3853 10.0603 22.0872C10.0054 21.9359 9.94061 21.7921 9.86657 21.657C9.59593 21.1631 9.13367 20.6775 8.48198 20.5435C7.74043 20.391 7.09502 20.7566 6.70279 21.3278C6.3396 21.8568 6.15588 22.5865 6.10804 23.4432L6.10616 23.4768L6.10655 23.5105L6.13186 25.6933L6.13195 25.7012L6.13217 25.709L6.19546 28.0349L6.19541 28.0349L6.19577 28.0445L6.32011 31.4232C6.03556 30.5698 5.53824 29.8634 4.90492 29.4092C4.4542 29.086 3.91027 28.8768 3.32624 28.8853C2.72806 28.894 2.16397 29.1312 1.70837 29.5697L1.31856 29.945L1.41936 30.4765C1.54981 31.1644 1.70685 31.968 2.08095 32.7698C2.08021 32.8471 2.08472 32.9185 2.09073 32.9801C2.11054 33.1836 2.15889 33.3963 2.20812 33.5827C2.28299 33.8663 2.3906 34.1985 2.48724 34.4967C2.51663 34.5874 2.54501 34.675 2.57114 34.7571L2.58151 34.7897L2.59409 34.8216C2.70843 35.1108 2.82847 35.4349 2.95326 35.7718C3.20298 36.4459 3.47176 37.1715 3.75215 37.7729C3.78014 37.9241 3.82195 38.0807 3.8582 38.2095C3.93023 38.4654 4.033 38.7865 4.16402 39.1493C4.42576 39.8741 4.81006 40.7924 5.30842 41.7171L5.32138 41.7411L5.33563 41.7644C5.6877 42.3401 5.97419 42.8131 6.17017 43.4168C6.36172 44.0069 6.4794 44.769 6.39242 45.882L6.39179 45.8901L6.3913 45.8981L5.59407 58.7717Z" stroke="#E01A2B" stroke-width="2"/>
<path d="M24.9072 58.8002L24.8397 59.8621L25.9037 59.8636L38.5683 59.8823L39.6421 59.8839L39.5674 58.8128L38.0578 37.1515C38.0361 35.8471 38.3242 34.9525 38.7361 34.2421C39.1676 33.4976 39.7553 32.9119 40.4548 32.2169C41.0024 31.6895 41.5519 31.1471 42.0987 30.6072C43.9453 28.7843 45.7623 26.9905 47.3777 25.9031C48.3608 25.4401 49.1859 25.0288 49.5664 24.7627L49.5901 24.7461L49.6128 24.7282C50.0025 24.4206 50.3418 24.0344 50.5028 23.5608C50.6778 23.0459 50.6104 22.5108 50.3165 22.0628C50.0464 21.651 49.6345 21.3839 49.2237 21.2147C48.8037 21.0417 48.315 20.9413 47.7895 20.9047L47.7561 20.9023L47.7226 20.9023C46.3328 20.8987 45.2556 21.3331 44.3388 21.8693C43.8928 22.1301 43.4761 22.4204 43.0959 22.6854L43.0923 22.6879C42.7006 22.9608 42.3463 23.2075 41.978 23.4244L41.9602 23.435L41.9427 23.4462C40.6634 24.2731 40.0298 24.1496 39.7626 24.0138C39.4376 23.8485 39.1425 23.4183 38.9916 22.7662C38.6534 20.0544 39.0743 18.7476 39.5538 17.2594C39.756 16.6317 39.9686 15.9717 40.1391 15.1604C41.2386 12.285 41.9153 9.91247 42.581 7.57836L42.6169 7.4527C43.0251 6.06185 42.7348 4.56796 41.5717 3.98355C40.9695 3.68099 40.2831 3.73361 39.7064 4.09239C39.1577 4.4338 38.7556 5.01398 38.493 5.72068C37.6865 7.83822 36.8453 9.82971 35.9309 11.6078L35.9216 11.6258L35.9131 11.6441C35.8646 11.7486 35.8134 11.8534 35.76 11.9627C35.7558 11.9715 35.7515 11.9802 35.7472 11.989C35.7665 11.7545 35.7847 11.5209 35.8027 11.2902C35.8081 11.2203 35.8136 11.1506 35.819 11.0812C36.0893 8.17623 36.1082 5.51787 36.0875 3.7491L36.0873 3.73052L36.0864 3.71195C36.0164 2.28167 35.1851 1.13637 33.9383 1.01033C33.3375 0.949603 32.7425 1.15756 32.2959 1.59657C31.8533 2.0316 31.6052 2.64019 31.5482 3.32589L31.5455 3.35835L31.545 3.39091L31.5017 5.82591L31.2314 8.59656L31.2313 8.59737L30.8369 12.6746C30.8195 12.8174 30.8017 12.9515 30.7836 13.0773C30.7495 12.9695 30.7178 12.8647 30.6889 12.7659L30.6835 12.7475L30.6774 12.7292C30.2366 11.413 29.9082 10.1005 29.5886 8.7929C29.5669 8.70388 29.5451 8.61482 29.5234 8.52574C29.2291 7.31969 28.9338 6.10939 28.5624 4.96196L28.551 4.9267L28.537 4.89238C28.1419 3.92353 27.2379 3.10381 26.1168 3.33229C24.9708 3.56586 24.4666 4.70794 24.4618 5.8554L24.4614 5.93843L24.4748 6.02038C24.7129 7.48178 25.0209 9.29043 25.3265 10.9095C25.6272 12.5025 25.9386 13.9851 26.1874 14.7473L26.1904 14.7566L26.1937 14.7658L27.138 14.4369L26.1937 14.7659L26.1937 14.7659L26.1938 14.7661L26.1939 14.7666L26.1945 14.7682L26.1965 14.774L26.2041 14.7955L26.2327 14.8764C26.2577 14.9466 26.2942 15.0486 26.3411 15.1774C26.404 15.35 26.4855 15.571 26.5829 15.8287L24.5853 13.3658C23.9112 12.372 23.0755 11.3657 22.2406 10.39L22.2297 10.3774L22.2185 10.3651C21.8857 10.0015 21.4784 9.71978 21.009 9.61438C20.52 9.50458 20.0196 9.60321 19.6214 9.90861C18.8445 10.5044 18.7779 11.5543 19.0909 12.3931L19.1081 12.4393L19.1298 12.4836C19.2001 12.6271 19.2695 12.7715 19.3404 12.9192C19.5301 13.3143 19.731 13.7326 19.9907 14.2172L19.9945 14.2243L19.9985 14.2315C20.9864 16.0048 21.6142 16.9069 22.1726 17.7017L22.209 17.7536C22.731 18.4964 23.183 19.1396 23.8587 20.4078C24.5217 21.7176 24.6853 23.0541 24.6127 25.4443L24.6114 25.4891L24.614 25.5339C24.7349 27.5715 25.0353 29.4085 25.5978 31.1793C26.2587 33.4064 26.6233 35.4464 26.2798 37.3104L26.269 37.3689L26.2652 37.4282L24.9072 58.8002ZM30.4255 14.5784C30.4255 14.5784 30.4258 14.5779 30.4264 14.5771L30.4255 14.5784Z" stroke="#E01A2B" stroke-width="2"/>
</svg>
