<svg width="135" height="22" viewBox="0 0 135 22" fill="none" xmlns="http://www.w3.org/2000/svg">
<path d="M4.28 16.784H0.44V1.592H4.28V7.952C4.312 7.952 4.336 7.952 4.352 7.952C4.512 7.952 4.696 7.824 4.904 7.568C5.128 7.312 5.328 7.056 5.504 6.8L8.72 1.592H12.896V1.664L10.16 6.08C9.92 6.48 9.648 6.912 9.344 7.376C9.04 7.824 8.736 8.224 8.432 8.576C8.144 8.912 7.888 9.12 7.664 9.2V9.272C7.888 9.368 8.144 9.576 8.432 9.896C8.736 10.2 9.04 10.56 9.344 10.976C9.664 11.376 9.968 11.776 10.256 12.176L13.448 16.712V16.784H9.032L6.032 12.176V12.2C5.936 12.04 5.784 11.832 5.576 11.576C5.384 11.304 5.176 11.056 4.952 10.832C4.744 10.608 4.56 10.496 4.4 10.496C4.368 10.496 4.344 10.496 4.328 10.496C4.312 10.496 4.296 10.496 4.28 10.496V16.784ZM19.4347 4.976C20.9707 4.976 22.2107 5.136 23.1547 5.456C24.0987 5.776 24.7867 6.368 25.2187 7.232C25.6667 8.08 25.8907 9.312 25.8907 10.928V16.784H22.4107L22.2907 15.68H22.2187C21.9147 16.08 21.4427 16.4 20.8027 16.64C20.1627 16.88 19.3307 17 18.3067 17C15.5387 17 14.1547 15.704 14.1547 13.112C14.1547 12.008 14.5147 11.144 15.2347 10.52C15.9707 9.88 17.1227 9.56 18.6907 9.56H22.2427C22.1307 8.888 21.8427 8.44 21.3787 8.216C20.9147 7.976 20.1227 7.856 19.0027 7.856C18.2987 7.856 17.6027 7.912 16.9147 8.024C16.2427 8.12 15.6507 8.232 15.1387 8.36L15.0667 8.312L15.0907 5.528C15.4107 5.432 15.8187 5.344 16.3147 5.264C16.8107 5.168 17.3307 5.096 17.8747 5.048C18.4347 5 18.9547 4.976 19.4347 4.976ZM19.2907 14.168C20.2827 14.168 21.0267 14.048 21.5227 13.808C22.0187 13.552 22.2747 13.152 22.2907 12.608V12.008H19.5787C18.8747 12.008 18.3787 12.112 18.0907 12.32C17.8187 12.512 17.6827 12.776 17.6827 13.112C17.6827 13.512 17.8267 13.792 18.1147 13.952C18.4027 14.096 18.7947 14.168 19.2907 14.168ZM32.2409 16.784H28.4009V5.096H32.0489L32.2409 7.232H32.3129C32.5369 6.512 32.9369 5.96 33.5129 5.576C34.0889 5.176 34.8889 4.976 35.9129 4.976C37.3049 4.976 38.3289 5.368 38.9849 6.152C39.6569 6.936 39.9929 8.296 39.9929 10.232V16.784H36.1529L36.1289 10.976C36.1289 10.08 35.9929 9.44 35.7209 9.056C35.4489 8.672 34.9369 8.48 34.1849 8.48C33.4809 8.48 32.9849 8.656 32.6969 9.008C32.4089 9.344 32.2569 9.928 32.2409 10.76V16.784ZM47.0675 4.976C48.6035 4.976 49.8435 5.136 50.7875 5.456C51.7315 5.776 52.4195 6.368 52.8515 7.232C53.2995 8.08 53.5235 9.312 53.5235 10.928V16.784H50.0435L49.9235 15.68H49.8515C49.5475 16.08 49.0755 16.4 48.4355 16.64C47.7955 16.88 46.9635 17 45.9395 17C43.1715 17 41.7875 15.704 41.7875 13.112C41.7875 12.008 42.1475 11.144 42.8675 10.52C43.6035 9.88 44.7555 9.56 46.3235 9.56H49.8755C49.7635 8.888 49.4755 8.44 49.0115 8.216C48.5475 7.976 47.7555 7.856 46.6355 7.856C45.9315 7.856 45.2355 7.912 44.5475 8.024C43.8755 8.12 43.2835 8.232 42.7715 8.36L42.6995 8.312L42.7235 5.528C43.0435 5.432 43.4515 5.344 43.9475 5.264C44.4435 5.168 44.9635 5.096 45.5075 5.048C46.0675 5 46.5875 4.976 47.0675 4.976ZM46.9235 14.168C47.9155 14.168 48.6595 14.048 49.1555 13.808C49.6515 13.552 49.9075 13.152 49.9235 12.608V12.008H47.2115C46.5075 12.008 46.0115 12.112 45.7235 12.32C45.4515 12.512 45.3155 12.776 45.3155 13.112C45.3155 13.512 45.4595 13.792 45.7475 13.952C46.0355 14.096 46.4275 14.168 46.9235 14.168ZM67.0498 5.168L63.2338 16.784H58.4338L54.8338 5.144V5.096H59.1538C59.4898 6.344 59.8018 7.696 60.0898 9.152C60.3938 10.608 60.6658 12.008 60.9058 13.352H61.0018C61.2418 12.008 61.5058 10.608 61.7938 9.152C62.0978 7.696 62.4178 6.344 62.7538 5.096H67.0498V5.168ZM72.5769 17C71.1049 17 70.0569 16.608 69.4329 15.824C68.8089 15.04 68.4969 13.92 68.4969 12.464V5.096H72.3369L72.3609 11.528C72.3609 12.248 72.4889 12.76 72.7449 13.064C73.0009 13.352 73.5209 13.496 74.3049 13.496C75.0569 13.496 75.5609 13.368 75.8169 13.112C76.0889 12.84 76.2329 12.384 76.2489 11.744V5.096H80.0889V16.784H76.4409L76.2489 15.464H76.1769C75.9689 15.928 75.5449 16.304 74.9049 16.592C74.2649 16.864 73.4889 17 72.5769 17ZM86.9954 13.376C87.0274 13.728 87.0514 14.032 87.0674 14.288C87.0834 14.528 87.0914 14.784 87.0914 15.056C87.0914 15.312 87.0834 15.576 87.0674 15.848C87.0514 16.104 87.0274 16.4 86.9954 16.736C86.5954 16.8 86.1954 16.856 85.7954 16.904C85.3954 16.952 84.9954 16.976 84.5954 16.976C84.2114 16.976 83.8274 16.952 83.4434 16.904C83.0594 16.856 82.6674 16.8 82.2674 16.736C82.2194 16.416 82.1874 16.128 82.1714 15.872C82.1554 15.6 82.1474 15.336 82.1474 15.08C82.1474 14.84 82.1554 14.584 82.1714 14.312C82.1874 14.04 82.2194 13.728 82.2674 13.376C83.0674 13.232 83.8594 13.16 84.6434 13.16C85.4274 13.16 86.2114 13.232 86.9954 13.376ZM92.9909 16.784H89.1509V0.655999H92.9909V7.232H93.0629C93.2869 6.512 93.6949 5.96 94.2869 5.576C94.8949 5.176 95.6869 4.976 96.6629 4.976C97.5909 4.976 98.3509 5.128 98.9429 5.432C99.5509 5.736 99.9989 6.272 100.287 7.04C100.591 7.792 100.743 8.856 100.743 10.232V16.784H96.9029L96.8789 10.976C96.8789 10.08 96.7429 9.44 96.4709 9.056C96.1989 8.672 95.6869 8.48 94.9349 8.48C94.2629 8.48 93.7749 8.656 93.4709 9.008C93.1669 9.36 93.0069 9.952 92.9909 10.784V16.784ZM113.65 16.4C113.202 16.56 112.578 16.704 111.778 16.832C110.994 16.944 110.058 17 108.97 17C107.594 17 106.418 16.824 105.442 16.472C104.482 16.104 103.754 15.488 103.258 14.624C102.762 13.744 102.514 12.528 102.514 10.976C102.514 8.864 102.994 7.336 103.954 6.392C104.93 5.448 106.434 4.976 108.466 4.976C109.922 4.976 111.066 5.184 111.898 5.6C112.746 6.016 113.346 6.608 113.698 7.376C114.066 8.128 114.25 9.024 114.25 10.064C114.25 10.368 114.234 10.696 114.202 11.048C114.186 11.4 114.146 11.744 114.082 12.08L113.986 12.176H106.09C106.202 12.88 106.53 13.344 107.074 13.568C107.634 13.792 108.538 13.904 109.786 13.904C110.618 13.904 111.306 13.888 111.85 13.856C112.41 13.808 112.978 13.744 113.554 13.664L113.65 13.736V16.4ZM110.914 9.656C110.914 9.272 110.85 8.944 110.722 8.672C110.61 8.384 110.378 8.168 110.026 8.024C109.674 7.864 109.154 7.784 108.466 7.784C107.458 7.784 106.794 7.96 106.474 8.312C106.17 8.648 106.018 9.096 106.018 9.656H110.914ZM120.132 16.784H116.292V0.631999H120.132V16.784ZM126.858 21.248H123.018V5.096H126.666L126.858 6.752V6.896H126.906C127.178 6.24 127.562 5.76 128.058 5.456C128.57 5.136 129.306 4.976 130.266 4.976C131.818 4.976 132.954 5.432 133.674 6.344C134.41 7.24 134.786 8.6 134.802 10.424C134.834 12.04 134.666 13.336 134.298 14.312C133.946 15.272 133.394 15.96 132.642 16.376C131.89 16.792 130.93 17 129.762 17C129.154 17 128.602 16.944 128.106 16.832C127.626 16.72 127.226 16.584 126.906 16.424L126.858 16.448V21.248ZM129.018 8.24C128.378 8.24 127.858 8.44 127.458 8.84C127.058 9.224 126.858 9.888 126.858 10.832V13.352C127.45 13.592 128.146 13.712 128.946 13.712C129.698 13.712 130.234 13.536 130.554 13.184C130.89 12.816 131.058 12.088 131.058 11C131.058 10.056 130.93 9.36 130.674 8.912C130.418 8.464 129.866 8.24 129.018 8.24Z" fill="#EB2D32"/>
</svg>
