<svg width="57" height="57" viewBox="0 0 57 57" fill="none" xmlns="http://www.w3.org/2000/svg">
<g clip-path="url(#clip0_82_219)">
<path d="M33.6194 31.5849C34.7869 32.2416 35.4566 33.0905 35.4566 33.9142C35.4566 34.4243 35.8699 34.8377 36.38 34.8377C36.8901 34.8377 37.3035 34.4243 37.3035 33.9142C37.3035 31.5307 34.8666 29.5584 31.3935 28.8454V27.5118C31.3935 27.0017 30.9802 26.5884 30.4701 26.5884C29.96 26.5884 29.5467 27.0017 29.5467 27.5118V28.5955C29.2038 28.5718 28.8551 28.5584 28.5001 28.5584C28.1452 28.5584 27.7965 28.5719 27.4536 28.5955V27.5118C27.4536 27.0017 27.0402 26.5884 26.5301 26.5884C26.02 26.5884 25.6067 27.0017 25.6067 27.5118V28.8454C22.1336 29.5584 19.6968 31.5307 19.6968 33.9142C19.6968 36.2978 22.1336 38.2701 25.6067 38.9831V45.9564C24.7829 45.7574 24.0281 45.4725 23.3809 45.1084C22.2133 44.4517 21.5436 43.6026 21.5436 42.779C21.5436 42.2689 21.1303 41.8556 20.6202 41.8556C20.1101 41.8556 19.6968 42.2689 19.6968 42.779C19.6968 45.1626 22.1336 47.1349 25.6067 47.8479V49.1815C25.6067 49.6916 26.02 50.1049 26.5301 50.1049C27.0402 50.1049 27.4536 49.6916 27.4536 49.1815V48.0977C27.7965 48.1215 28.1452 48.1349 28.5001 48.1349C28.8551 48.1349 29.2038 48.1214 29.5467 48.0977V49.1815C29.5467 49.6916 29.96 50.1049 30.4701 50.1049C30.9802 50.1049 31.3935 49.6916 31.3935 49.1815V47.8479C34.8666 47.1349 37.3035 45.1626 37.3035 42.779C37.3035 40.3955 34.8666 38.4232 31.3935 37.7101V30.7369C32.2174 30.936 32.9721 31.2208 33.6194 31.5849ZM23.3809 36.2436C22.2133 35.5869 21.5436 34.7378 21.5436 33.9142C21.5436 33.0907 22.2132 32.2416 23.3809 31.5849C24.0281 31.2208 24.7829 30.936 25.6067 30.7369V37.0914C24.7828 36.8925 24.0281 36.6077 23.3809 36.2436ZM28.5001 46.2882C28.1463 46.2882 27.7968 46.274 27.4536 46.2468V39.2329C27.7965 39.2567 28.1452 39.2701 28.5001 39.2701C28.854 39.2701 29.2034 39.2843 29.5467 39.3115V46.2468C29.2034 46.274 28.854 46.2882 28.5001 46.2882ZM33.6194 40.4498C34.7869 41.1065 35.4566 41.9555 35.4566 42.7791C35.4566 43.6026 34.7871 44.4518 33.6194 45.1085C32.9721 45.4726 32.2174 45.7574 31.3935 45.9565V39.6019C32.2174 39.8009 32.9721 40.0857 33.6194 40.4498ZM29.5467 37.4606C29.2038 37.4368 28.8551 37.4234 28.5001 37.4234C28.1463 37.4234 27.7968 37.4092 27.4536 37.382V30.4467C27.7968 30.4195 28.1463 30.4053 28.5001 30.4053C28.854 30.4053 29.2034 30.4195 29.5467 30.4467V37.4606Z" fill="#E01A2B"/>
<path d="M33.7725 18.4078C34.1341 17.9248 34.3484 17.3255 34.3484 16.6772C34.3484 15.6393 33.7989 14.7277 32.9757 14.217C34.9947 12.8018 36.3184 10.4594 36.3184 7.81225V2.84544C36.3184 1.88643 35.8404 0.998703 35.0398 0.470749C34.2391 -0.0572055 33.2345 -0.14684 32.3536 0.231027L28.5001 1.88249L24.6466 0.231027C23.7652 -0.146716 22.761 -0.0572055 21.9605 0.470749C21.1598 0.998703 20.6818 1.88643 20.6818 2.84544V7.81212C20.6818 10.4593 22.0055 12.8018 24.0245 14.2169C23.2014 14.7276 22.6518 15.6391 22.6518 16.677C22.6518 17.3254 22.8662 17.9248 23.2278 18.4077C14.4021 20.7433 7.87695 28.7968 7.87695 38.3467V46.2267C7.87695 52.1672 12.7098 57 18.6503 57H38.3501C44.2905 57 49.1234 52.1672 49.1234 46.2267V38.3467C49.1234 28.7968 42.5982 20.7434 33.7725 18.4078ZM28.4918 17.7236H25.5452C24.9681 17.7236 24.4987 17.2541 24.4987 16.677C24.4987 16.1 24.9681 15.6305 25.5452 15.6305H28.4948C28.4965 15.6305 28.4982 15.6307 28.4999 15.6307C28.5001 15.6307 28.5001 15.6307 28.5002 15.6307C28.5003 15.6307 28.5003 15.6307 28.5004 15.6307C28.5021 15.6307 28.5039 15.6305 28.5056 15.6305H31.4551C32.0322 15.6305 32.5017 16.1 32.5017 16.677C32.5017 17.2541 32.0322 17.7236 31.4551 17.7236H28.5074C28.5055 17.7236 28.5036 17.7236 28.5017 17.7236H28.4997C28.4971 17.7236 28.4944 17.7236 28.4918 17.7236ZM22.5287 7.81212V2.84544C22.5287 2.50414 22.6921 2.20051 22.9771 2.01263C23.1449 1.90194 23.333 1.84592 23.5234 1.84592C23.6562 1.84592 23.7903 1.87325 23.9194 1.92853L28.1366 3.73599C28.3689 3.8356 28.6317 3.8356 28.864 3.73599L33.0812 1.92853C33.3952 1.79396 33.7385 1.82462 34.0234 2.01275C34.3083 2.20051 34.4718 2.50414 34.4718 2.84556V7.81225C34.4718 10.6106 32.5365 12.9645 29.9343 13.6085L31.3277 10.1251C31.5171 9.65159 31.2867 9.11428 30.8132 8.92479C30.3401 8.73543 29.8022 8.96555 29.6128 9.43933L28.5003 12.2207L27.3878 9.43933C27.1984 8.96567 26.6606 8.73567 26.1874 8.92479C25.7139 9.11428 25.4835 9.65159 25.6729 10.1251L27.0663 13.6085C24.4639 12.9644 22.5287 10.6106 22.5287 7.81212ZM47.2765 46.2267C47.2765 51.1488 43.2722 55.1532 38.3501 55.1532H18.6503C13.7282 55.1532 9.72381 51.1488 9.72381 46.2267V38.3467C9.72381 28.5947 17.1974 20.5563 26.7178 19.6555L25.7618 21.0895C25.4788 21.5138 25.5936 22.0872 26.0179 22.37C26.1752 22.475 26.3533 22.5253 26.5292 22.5253C26.8277 22.5253 27.1205 22.3809 27.2984 22.1139L28.5001 20.3114L29.7017 22.1139C29.8797 22.3809 30.1724 22.5253 30.4709 22.5253C30.647 22.5253 30.8249 22.475 30.9822 22.37C31.4065 22.0871 31.5213 21.5138 31.2383 21.0895L30.2823 19.6554C39.8028 20.556 47.2765 28.5944 47.2765 38.3466V46.2267Z" fill="#E01A2B"/>
</g>
<defs>
<clipPath id="clip0_82_219">
<rect width="57" height="57" fill="white"/>
</clipPath>
</defs>
</svg>
