<svg width="273" height="15" viewBox="0 0 273 15" fill="none" xmlns="http://www.w3.org/2000/svg">
<line y1="7.5" x2="127" y2="7.5" stroke="#E01A2B"/>
<line x1="146" y1="7.5" x2="273" y2="7.5" stroke="#E01A2B"/>
<path d="M134.175 1.56308C134.569 1.57506 134.95 1.64381 135.319 1.76943H135.356C135.381 1.78131 135.4 1.79443 135.412 1.80631C135.55 1.85068 135.681 1.90068 135.806 1.96943L136.044 2.07568C136.137 2.12568 136.25 2.21881 136.312 2.25693C136.375 2.29381 136.444 2.33193 136.5 2.37506C137.194 1.84443 138.037 1.55693 138.906 1.56308C139.3 1.56308 139.694 1.61881 140.069 1.74443C142.375 2.49443 143.207 5.02568 142.512 7.23818C142.119 8.36881 141.475 9.40068 140.632 10.2438C139.425 11.4126 138.1 12.4501 136.675 13.3438L136.519 13.4382L136.356 13.3376C134.925 12.4501 133.594 11.4126 132.375 10.2376C131.538 9.39443 130.894 8.36881 130.494 7.23818C129.787 5.02568 130.619 2.49443 132.95 1.73131C133.132 1.66881 133.319 1.62506 133.506 1.60068H133.581C133.757 1.57506 133.931 1.56308 134.106 1.56308H134.175ZM139.744 3.53818C139.487 3.45006 139.206 3.58818 139.112 3.85068C139.025 4.11318 139.162 4.40068 139.425 4.49381C139.825 4.64381 140.094 5.03818 140.094 5.47506V5.49443C140.082 5.63756 140.125 5.77568 140.212 5.88193C140.3 5.98818 140.431 6.05006 140.569 6.06318C140.825 6.05631 141.044 5.85068 141.062 5.58756V5.51318C141.081 4.63756 140.55 3.84443 139.744 3.53818Z" fill="#E01A2B"/>
</svg>
