<svg width="60" height="59" viewBox="0 0 60 59" fill="none" xmlns="http://www.w3.org/2000/svg">
<path d="M38.6949 54.1526H46.4238H51.7204V57.017H37.2627V54.1526H38.6949ZM22.7374 54.1526V57.017H8.27979V54.1526H13.5764H21.3052H22.7374Z" stroke="#E01A2B"/>
<path d="M51.7253 35.1742L52.7202 35.1035V21.7714C52.7202 20.4051 53.7523 19.3731 55.1185 19.3731C56.4848 19.3731 57.5168 20.4051 57.5168 21.7714V36.2629C57.5168 37.7514 57.0667 38.8715 56.6214 39.6174C56.3983 39.9911 56.1763 40.2709 56.0128 40.4548C55.9312 40.5466 55.8644 40.6142 55.8199 40.6573C55.7976 40.6789 55.781 40.6943 55.7708 40.7035L55.7608 40.7124L55.7606 40.7126L55.7604 40.7127L55.7602 40.713L55.7597 40.7134L55.7593 40.7137L55.7454 40.7256L55.7311 40.7399L48.0023 48.4686L48.3559 48.8221C48.0023 48.4686 48.0022 48.4687 48.002 48.4689L48.0017 48.4692L48.0009 48.47L47.9988 48.4721L47.9926 48.4785L47.9721 48.4997C47.955 48.5176 47.9313 48.543 47.9018 48.5757C47.8428 48.641 47.7608 48.7354 47.6635 48.857C47.4691 49.1 47.2122 49.4535 46.9556 49.9025C46.4994 50.7009 46.0367 51.8148 45.9414 53.1527H39.1948V44.9578C39.1948 43.4692 39.6449 42.3491 40.0902 41.6033C40.3134 41.2295 40.5354 40.9497 40.6988 40.7659C40.7805 40.674 40.8472 40.6064 40.8917 40.5633C40.914 40.5418 40.9307 40.5264 40.9408 40.5172L40.9509 40.5082L40.9511 40.508L40.9512 40.5079L40.9515 40.5077L40.9519 40.5073L40.9523 40.507L40.9663 40.4951L40.9806 40.4808L47.7433 33.7181C48.2441 33.2172 48.8281 32.9658 49.3874 32.9465C49.9424 32.9274 50.5105 33.1349 50.9972 33.6216L51.0132 33.6376L51.0307 33.6521C51.4641 34.0133 51.6337 34.5328 51.7253 35.1742ZM7.37621 35.1071L8.3762 35.1035C8.3762 34.5769 8.60086 34.0169 9.01854 33.5091C9.9498 32.5953 11.3595 32.7244 12.2566 33.6214C12.2566 33.6214 12.2566 33.6214 12.2566 33.6215L19.0193 40.3841L19.0336 40.3984L19.0475 40.4103L19.0479 40.4106C19.048 40.4107 19.0482 40.4108 19.0484 40.411C19.0485 40.4111 19.0484 40.411 19.0486 40.4111C19.0486 40.4112 19.0487 40.4113 19.0488 40.4114L19.049 40.4115L19.059 40.4205C19.0692 40.4297 19.0859 40.4451 19.1081 40.4666C19.1527 40.5097 19.2194 40.5773 19.301 40.6692C19.4645 40.8531 19.6865 41.1328 19.9097 41.5066C20.355 42.2525 20.8051 43.3725 20.8051 44.8611V53.056H14.0584C13.9631 51.7182 13.5005 50.6042 13.0442 49.8058C12.7877 49.3568 12.5307 49.0033 12.3363 48.7603C12.239 48.6387 12.157 48.5443 12.0981 48.479C12.0686 48.4464 12.0448 48.421 12.0278 48.403L12.0073 48.3818L12.001 48.3754L11.9989 48.3733L11.9982 48.3725L11.9978 48.3722C11.9977 48.372 11.9975 48.3719 11.644 48.7255L11.9975 48.3719L4.2687 40.6432L4.25439 40.6289L4.24044 40.617L4.24025 40.6169L4.24005 40.6167L4.2396 40.6163L4.23931 40.616L4.2392 40.6159L4.23897 40.6158L4.22896 40.6068C4.21879 40.5976 4.20211 40.5822 4.17986 40.5606C4.13532 40.5175 4.06858 40.45 3.98694 40.3581C3.82349 40.1742 3.60148 39.8945 3.37834 39.5207C2.93304 38.7748 2.48291 37.6547 2.48291 36.1662V21.6747C2.48291 20.3084 3.51495 19.2764 4.88121 19.2764C6.24748 19.2764 7.27952 20.3084 7.2795 21.6747L7.27953 21.6783L7.3762 35.1035L7.37621 35.1071Z" stroke="#E01A2B"/>
<path d="M29.9999 1.98315C37.7425 1.98315 43.9915 8.23214 43.9915 15.9747C43.9915 23.7172 37.7425 29.9662 29.9999 29.9662C22.2574 29.9662 16.0084 23.7172 16.0084 15.9747C16.0084 8.23214 22.2575 1.98315 29.9999 1.98315Z" stroke="#E01A2B"/>
<path d="M52.2203 58C51.9305 58 51.7372 57.8067 51.7372 57.5169V54.1355H37.2457V57.5169C37.2457 57.8067 37.0524 58 36.7626 58C36.4728 58 36.2795 57.8067 36.2795 57.5169V53.6525C36.2795 53.3627 36.4728 53.1695 36.7626 53.1695H52.2203C52.5101 53.1695 52.7034 53.3627 52.7034 53.6525V57.5169C52.7034 57.8067 52.5101 58 52.2203 58ZM23.2373 58C22.9474 58 22.7542 57.8067 22.7542 57.5169V54.1355H8.26267V57.5169C8.26267 57.8067 8.06941 58 7.77958 58C7.48975 58 7.29649 57.8067 7.29649 57.5169V53.6525C7.29649 53.3627 7.48975 53.1695 7.77958 53.1695H23.2373C23.5271 53.1695 23.7204 53.3627 23.7204 53.6525V57.5169C23.7204 57.8067 23.5271 58 23.2373 58ZM38.6949 50.2712C38.405 50.2712 38.2118 50.0779 38.2118 49.7881V44.9575C38.2118 41.5761 40.2406 39.8371 40.3372 39.7406L47.0998 32.9779C47.7761 32.3017 48.549 32.0118 49.4185 31.9152C50.288 31.9152 51.1574 32.205 51.7371 32.8812C52.4133 33.5575 52.7032 34.3304 52.7032 35.1999C52.7032 36.0694 52.3168 36.8423 51.6404 37.5185L46.8099 42.349C46.6166 42.5423 46.3268 42.5423 46.1336 42.349C45.9404 42.1558 45.9404 41.866 46.1336 41.6728L50.9642 36.8423C51.4473 36.3592 51.7371 35.7795 51.7371 35.1999C51.7371 34.6202 51.5438 34.0405 51.0609 33.5575C50.5779 33.0744 49.9981 32.8812 49.4185 32.8812C48.8388 32.8812 48.2591 33.1711 47.7761 33.6541L41.0134 40.4168C41.0134 40.4168 39.1778 42.0592 39.1778 44.8608V49.6914C39.1779 50.0779 38.9847 50.2712 38.6949 50.2712ZM21.305 50.2712C21.0152 50.2712 20.8219 50.0779 20.8219 49.7881V44.9575C20.8219 42.0592 19.083 40.5135 19.083 40.5135L12.3203 33.7508C11.8372 33.2677 11.2575 32.9779 10.6779 32.9779C10.0982 32.9779 9.51856 33.1712 9.03547 33.6541C8.55239 34.1372 8.35924 34.7169 8.35924 35.2966C8.35924 35.8762 8.64907 36.4559 9.13216 36.939L13.9627 41.7695C14.156 41.9628 14.156 42.2526 13.9627 42.4457C13.7694 42.639 13.4796 42.639 13.2865 42.4457L8.45593 37.6153C7.77969 36.9391 7.48986 36.1662 7.39318 35.2967C7.39318 34.4272 7.68301 33.5577 8.35924 32.978C9.03547 32.3018 9.80839 32.012 10.6779 32.012C11.5474 32.012 12.3203 32.3984 12.9965 33.0747L19.7592 39.8374C19.8558 39.9339 21.788 41.6729 21.788 45.0543V49.8849C21.7881 50.0779 21.5949 50.2712 21.305 50.2712ZM48.3559 49.3051C48.2594 49.3051 48.0661 49.3051 47.9695 49.2085C47.7763 49.0153 47.7763 48.7254 47.9695 48.5323L55.6984 40.8034C55.795 40.7069 57.5339 39.2577 57.5339 36.3594V21.8679C57.5339 20.5153 56.4712 19.4527 55.1187 19.4527C53.7661 19.4527 52.7035 20.5154 52.7035 21.8679V29.5001C52.7035 29.7899 52.5103 29.9831 52.2204 29.9831C51.9306 29.9831 51.7373 29.7899 51.7373 29.5001V21.7713C51.7373 19.9358 53.2831 18.3899 55.1187 18.3899C56.9543 18.3899 58.5001 19.9357 58.5001 21.7713V36.2628C58.5001 39.6442 56.4713 41.3832 56.3747 41.4798L48.6459 49.2086C48.6458 49.3051 48.4525 49.3051 48.3559 49.3051ZM11.6441 49.3051C11.5475 49.3051 11.3542 49.3051 11.2577 49.2085L3.52881 41.4797C3.43224 41.4797 1.5 39.7407 1.5 36.2627V21.7712C1.5 19.9355 3.04572 18.3898 4.88139 18.3898C6.71706 18.3898 8.26278 19.9355 8.26278 21.7712V29.4034C8.26278 29.6932 8.06952 29.8865 7.77969 29.8865C7.48986 29.8865 7.29661 29.6932 7.29661 29.4034V21.7712C7.29661 20.4186 6.23386 19.356 4.88139 19.356C3.52893 19.356 2.46606 20.4186 2.46606 21.7712V36.2627C2.46606 39.161 4.20505 40.7068 4.20505 40.7068L11.9339 48.4356C12.1271 48.6289 12.1271 48.9187 11.9339 49.1118C11.9339 49.3051 11.7406 49.3051 11.6441 49.3051ZM29.9999 30.9491C21.7881 30.9491 15.0253 24.1864 15.0253 15.9745C15.0253 7.76256 21.7881 1 29.9999 1C38.2118 1 44.9745 7.76267 44.9745 15.9746C44.9745 24.1865 38.2119 30.9491 29.9999 30.9491ZM29.9999 1.96606C22.2712 1.96606 15.9915 8.24576 15.9915 15.9746C15.9915 23.7034 22.2712 29.983 29.9999 29.983C37.7287 29.983 44.0084 23.7033 44.0084 15.9746C44.0084 8.24587 37.7288 1.96606 29.9999 1.96606ZM29.9999 23.2204C29.7101 23.2204 29.5169 23.0271 29.5169 22.7373V22.2542C27.8744 22.0609 26.6186 20.6118 26.6186 18.8728C26.6186 18.583 26.8118 18.3897 27.1016 18.3897C27.3915 18.3897 27.5847 18.583 27.5847 18.8728C27.5847 20.2254 28.6475 21.288 29.9999 21.288C31.3525 21.288 32.4152 20.2253 32.4152 18.8728C32.4152 17.5202 31.3524 16.4576 29.9999 16.4576C28.1644 16.4576 26.6186 14.9119 26.6186 13.0762C26.6186 11.3372 27.8744 9.98463 29.5169 9.6948V9.21171C29.5169 8.92188 29.7101 8.72862 29.9999 8.72862C30.2898 8.72862 30.483 8.92188 30.483 9.21171V9.69491C32.1254 9.88817 33.3813 11.3373 33.3813 13.0763C33.3813 13.3661 33.1881 13.5594 32.8982 13.5594C32.6084 13.5594 32.4152 13.3661 32.4152 13.0763C32.4152 11.7237 31.3524 10.6611 29.9999 10.6611C28.6474 10.6611 27.5847 11.7238 27.5847 13.0763C27.5847 14.4288 28.6475 15.4915 29.9999 15.4915C31.8355 15.4915 33.3813 17.0372 33.3813 18.8729C33.3813 20.6119 32.1254 21.9645 30.483 22.2543V22.7373C30.483 23.0271 30.2898 23.2204 29.9999 23.2204Z" fill="#E01A2B" stroke="#E01A2B" stroke-width="1.25"/>
</svg>
